<svg id="Layer_1" enable-background="new 0 0 53 53" height="512" viewBox="0 0 53 53" width="512" xmlns="http://www.w3.org/2000/svg"><g><g><g><path d="m16.3256073 40.6827507c-.3710938 0-.6933594-.2753906-.7426758-.652832-.0537109-.4106445.2358398-.7871094.6464844-.8408203 9.9150391-1.293457 18.2841797-8.5048809 25.0087891-14.2998028 1.7456055-1.5039063 3.5507813-3.0585938 4.5898438-5.0957031.8984375-1.7607422 1.1835938-4.2890625-.2055664-5.9672852-1.1733398-1.4169922-3.3095703-2.0258789-6.355957-1.7988281-10.625.7788086-19.9936523 7.7822266-27.7568359 14.5297852-2.1557617 1.8740234-4.1542964 3.7578125-4.9238276 6.1972637-.4326172 1.3725586-.2919922 3 .3671875 4.2480469.3374023.6376953.9677734 1.4672852 2.0566401 1.7954102.3964844.1201172.6210938.5385742.5014648.9350586-.1196289.3959961-.5400391.6196289-.9350586.5014648-1.2543941-.3789063-2.2739253-1.2539063-2.9492183-2.53125-.8398438-1.5893555-1.0205078-3.6586914-.4716797-5.3999023.887207-2.8120098 3.0463862-4.8579082 5.3701167-6.8779278 7.949707-6.909668 17.5678711-14.0830078 28.6318359-14.894043 3.5566406-.2607422 6.1206055.5258789 7.6206055 2.3388672 1.8237305 2.2026367 1.5083008 5.4067383.3862305 7.6049805-1.1728516 2.2993164-3.1777344 4.0268555-4.9462891 5.5507813-6.8764648 5.9248047-15.434082 13.2988262-25.7939453 14.6503887-.0332032.0043944-.065918.0063475-.0981446.0063475z"/></g></g><g><g><path d="m12.6800995 45.4293327c-.2397461 0-.4790039-.0209961-.7143555-.0649414-1.0273438-.1914063-2.0073242-.7871094-2.7602539-1.6767578-1.2441401-1.4711914-1.6503901-3.5449219-1.034668-5.2822265 0 0 0 0 0-.0004883.6669922-1.8789063 2.0478516-2.9892578 3.7890625-3.0463867 2.0009766-.0454102 3.9213867 1.2724609 4.8046875 3.3256836.6762695 1.5742188.5307617 3.3974609-.3803711 4.7578125-.8237304 1.230957-2.2749023 1.9873046-3.7041015 1.9873046zm-3.0952149-6.5229492c-.4414063 1.2441406-.140625 2.7407227.7661133 3.8125.5302734.6264648 1.2011719 1.0424805 1.8896484 1.1708984 1.0668945.2006836 2.2583008-.3291016 2.8974609-1.2817383.621582-.9287109.71875-2.2363281.2485352-3.331543-.6318359-1.4682617-2.0390625-2.4648438-3.3779297-2.418457-1.1074218.0361329-1.9682617.7636719-2.4238281 2.0483399z"/></g></g><g><g><path d="m27.0516815 51.2515984c-2.7797852.0004883-5.1567383-2.0458984-6.5239258-4.1025391-1.7509766-2.6333008-2.5688477-5.7866211-3.1376953-8.5244141-1.9633789-9.45117-1.9936523-18.4394512-.0898438-26.7158184.5776367-2.5107422 1.4462891-5.3505859 3.5112305-7.3793945 1.9677734-1.9345703 5.2583008-3.1757813 7.8276367-1.3300781.3364258.2416992.4130859.7104492.171875 1.046875-.2431641.3369141-.7124023.4121094-1.046875.171875-1.8652344-1.340332-4.3666992-.3261719-5.9018555 1.1816406-1.7890625 1.7578125-2.5712891 4.3457031-3.1000977 6.6450195-1.8549805 8.0644531-1.8227539 16.8369141.0966797 26.0747051.5668945 2.7280273 1.3129883 5.5849609 2.9179688 7.9995117 1.1904297 1.7900391 3.4467773 3.7495117 5.8920898 3.3867188 1.359375-.203125 2.6953125-1.1435547 3.6645508-2.5795898.9018555-1.3374023 1.4291992-2.9394531 1.9335938-4.6005859 1.980957-6.5283203 2.9975586-11.5644512 3.2949219-16.3286114.3779297-6.0522461-.4726563-11.4887695-2.5283203-16.1582031-.1669922-.3793945.0053711-.8217773.3842773-.9887695.3789063-.1645508.8222656.0053711.9887695.3842773 2.1533203 4.8911133 3.0454102 10.5625 2.6523438 16.8564453-.3051872 4.8847656-1.340332 10.025877-3.3564453 16.6704082-.5390625 1.7753906-1.1074219 3.4936523-2.1259766 5.0039063-1.2036133 1.7841797-2.9116211 2.9589844-4.6860352 3.2241211-.283203.0424804-.5629882.0625-.8388671.0625z"/></g></g><g><g><path d="m31.4384003 11.8775768c-1.4868164 0-2.9853516-.6289063-3.949707-1.7646484-1.2900391-1.519043-1.5625-3.831543-.6630859-5.6230469 0 0 0-.0004883.0004883-.0004883.9921875-1.9750977 3.0654297-3.027832 5.2856445-2.6728516 2.2592773.3579102 3.9375 2.0229492 4.2753906 4.2421875.3295898 2.1645508-.9243164 4.4819336-2.9169922 5.3901367-.6367188.2900392-1.3330079.428711-2.0317383.428711zm-3.2719727-6.7148437c-.6376953 1.2695313-.4458008 2.9057617.4658203 3.9794922.9980469 1.1757813 2.8100586 1.5810547 4.2158203.9414063 1.4047852-.6401367 2.2885742-2.2734375 2.0561523-3.7993164-.2885742-1.8959961-1.8110352-2.793457-3.0273438-2.9863281-1.2382813-.1943359-2.8686523.1899414-3.7109375 1.8652344z"/></g></g><g><g><path d="m39.6146698 42.1251335c-2.2768555 0-4.5214844-.5957031-6.4882813-1.1728516-6.4575195-1.8950195-11.4008789-4.0234375-15.5566406-6.6977539-5.2290039-3.3652325-9.2026367-7.6860332-11.4926758-12.4965801-.6962891-1.4628906-2.7314453-6.4814453.3227539-9.6328125 1.7861323-1.8427734 4.6528316-2.315918 8.7714844-1.4462891 6.5488281 1.3837891 12.765625 3.9331055 18.4775391 7.5766602 4.5571289 2.9077148 10.7988281 6.8891602 13.4467773 12.0073242 1.3935547 2.6938457 1.5146484 5.6206036.3232422 7.8286114-1.1860352 2.1967773-3.7651367 3.7241211-6.7299805 3.9873047-.3583984.0317383-.7167968.0463867-1.0742187.0463867zm-28.0458984-30.369627c-1.8256836 0-3.1767578.4692383-4.0917964 1.4135742-1.8920898 1.9526367-1.2641602 5.3837891-.0454102 7.9443359 2.1694331 4.5581055 5.9560542 8.6660156 10.949707 11.8793926 4.0317383 2.5947266 8.8515625 4.6665039 15.1679688 6.5200195 2.2412109.6586914 4.6342773 1.2817383 7.0068359 1.0717773 2.4697266-.2192383 4.5932617-1.4472656 5.5424805-3.2055664.9418945-1.7446289.8134766-4.2075195-.3349609-6.4267559-2.4628906-4.7597656-8.5078125-8.6162109-12.9213867-11.4321289-5.5595703-3.5463867-11.609375-6.0273438-17.9814453-7.3735352-1.2329107-.260742-2.3286138-.3911131-3.2919927-.3911131z"/></g></g><g><g><path d="m26.0497284 30.5680065c-.1875 0-.375-.0141602-.5620117-.0439453-2.0302734-.3217773-3.59375-2.3945313-3.3452148-4.4360352.1831055-1.5009766 1.0361328-2.6591797 2.3408203-3.1777344 1.4106445-.5605469 3.1454945-.2851563 4.3139648.6850586 1.0810547.8974609 1.534668 2.2626953 1.2441406 3.7456055-.3583984 1.8320313-2.1455078 3.2270508-3.9916992 3.2270508zm-2.4179688-4.2983398c-.152832 1.253418.84375 2.5751953 2.0908203 2.7729492 1.2490234.1948242 2.6040039-.75 2.847168-1.9897461.2358398-1.206543-.2670898-1.918457-.7304688-2.3032227-.7475586-.621582-1.9013672-.8056641-2.8017578-.4453125-.559082.222168-1.2568359.7431641-1.4057617 1.9653321z"/></g></g></g></svg>