<svg id="Layer_1" enable-background="new 0 0 73 73" height="512" viewBox="0 0 73 73" width="512" xmlns="http://www.w3.org/2000/svg"><g id="_x31_60"><path d="m31.8468628 37.1550789-7.3952637 7.9961548c-.28125.3037109-.2626953.7783203.0414982 1.0595703 3.9276752 3.5426559 3.8234825 3.7470703 4.3427792 3.7470703.9804249-.3917007-.7125225.9947205 7.7686157-8.0453491 8.3920822 8.2807884 8.0559807 8.3197632 8.6303101 8.3197632.5494881 0 .4063988-.2019272 4.2260742-3.9160156.2913933-.2913933.2944756-.7666054-.0004883-1.0605469l-8.2894287-8.2783813c9.5623894-10.4605618 9.5395546-10.0306473 9.5164795-10.6176167-.0216026-.5495186-.2216492-.4016857-4.0859375-4.0693359-.3046875-.2788086-.7773438-.2612305-1.0595703.0419922l-9.1291504 9.8763447-8.9353028-8.9251729c-.2919922-.2919922-.7670898-.2924805-1.0600586.0004883-3.7048149 3.8106022-3.9160156 3.6770802-3.9160156 4.2265625 0 .5780754-.0217857.1772003 9.345459 9.6444721zm-4.8986816-12.2802143c9.7063408 9.6903477 9.0752983 9.2690411 9.6565552 9.1319599.5518913-.1294785.1437721-.118454 9.5299683-10.1055927l2.7426758 2.5302734c-10.1752739 11.0359707-9.8371696 10.276556-9.2559204 11.1170673l.000061.0001221c5.1055412 5.0988884 3.1417427 3.1376495 8.2480469 8.2373047l-2.6347656 2.6357422c-8.3811035-8.377079-8.4634209-8.8393135-9.1816406-8.1210938-.0037842.0037842-.0048218.0090332-.0085449.0128784-.0968742.1000481-7.2045937 7.7347145-7.2497559 7.8347778l-2.7329102-2.5292969c8.1523285-8.8439751 7.8703651-8.1557007 7.3549805-9.0146484l-.0204468-.0204468c-7.8570843-7.848217-4.0941162-4.0894966-9.0840454-9.0737934z"/><path d="m55.6654663 5.6751575-1.7441406 4.5668945c-.1879387.4918652.1767921 1.0175781.7006836 1.0175781.3017578 0 .5864258-.1835938.7006836-.4824219l1.7441406-4.5668945c.1479492-.3867188-.0458984-.8203125-.4331055-.9682617-.3847656-.1469726-.8198242.0454102-.9682617.4331055z"/><path d="m63.656189 9.1453724c-.2939453-.2919922-.7685547-.2910156-1.0605469.0029297l-3.7084961 3.7299805c-.2919922.2939453-.2910156.7685547.0029297 1.0605469.2943954.2924347.7689552.2906055 1.0605469-.0029297l3.7084961-3.7299805c.2919921-.2939453.2910156-.7685547-.0029297-1.0605469z"/><path d="m63.7265015 18.7376575 4.5727539-1.0219727c.4042969-.090332.6586914-.4912109.5683594-.8955078-.0908203-.4038086-.4892578-.6616211-.8955078-.5683594l-4.5727539 1.0219727c-.4042969.090332-.6586914.4912109-.5683594.8955078.0895118.4000092.4862976.6588937.8955078.5683594z"/><path d="m17.7171021 63.0229378c6.7684937 4.1432457 13.0830688 5.4951744 20.9489136 4.4428062 6.1100464-.8174438 13.4714355-3.4586792 18.2946167-7.8284264 3.9615479-3.1323242 7.1264038-7.2924805 8.9230957-11.979248 2.9946289-7.8105469 1.8876953-18.5234394-2.6918945-26.052248-6.1458169-10.1050606-18.9773713-14.9197154-30.702881-13.3742065-13.1134796-.4995532-30.771741 13.4601535-28.1048584 34.7108783 1.1652465 9.2854119 5.6603108 15.3836785 13.3330079 20.0804444zm-9.1322022-28.2623291c1.1962891-8.1660176 5.3598633-15.6132832 11.1376953-19.9213887 12.6695862-9.4434805 33.8554955-6.1530485 42.1879883 7.5458984 4.2851563 7.0449219 5.3671875 17.4477558 2.5727539 24.7358418-2.8803711 7.5126953-9.4560547 13.6191406-17.1611328 15.9375-5.0146484 1.5068321-11.8833008 1.8535118-17.0883789.8652344-3.8203125-.7263794-7.2719727-2.1020508-10.2571411-4.0448608-4.1683111-2.8446198-7.3329897-6.7066841-9.1085863-10.4326782-2.124507-4.4580079-2.9780226-9.9472657-2.2831984-14.6855469z"/></g></svg>