<?xml version="1.0" encoding="iso-8859-1"?>
<!-- Generator: Adobe Illustrator 19.0.0, SVG Export Plug-In . SVG Version: 6.00 Build 0)  -->
<svg version="1.1" id="Layer_1" xmlns="http://www.w3.org/2000/svg" xmlns:xlink="http://www.w3.org/1999/xlink" x="0px" y="0px"
	 viewBox="0 0 512 512" style="enable-background:new 0 0 512 512;" xml:space="preserve">
<g>
	<g>
		<path d="M507.155,118.81c-3.011-1.858-6.767-2.025-9.931-0.435L256,239.488L14.776,118.376c-3.162-1.587-6.919-1.422-9.931,0.435
			C1.833,120.669,0,123.953,0,127.491V261.1c0,3.857,2.175,7.384,5.623,9.115l245.801,123.41c1.44,0.723,3.008,1.084,4.576,1.084
			c1.569,0,3.136-0.362,4.576-1.084l245.801-123.41c3.446-1.731,5.623-5.258,5.623-9.115v-133.61
			C512,123.953,510.166,120.668,507.155,118.81z M491.602,254.808L256,373.098L20.398,254.808V144.023l231.025,115.992
			c2.88,1.446,6.273,1.446,9.153,0l231.025-115.992V254.808z"/>
	</g>
</g>
<g>
	<g>
		<path d="M429.659,257.542c-2.527-5.033-8.654-7.064-13.691-4.538l-6.455,3.241c-5.033,2.527-7.066,8.657-4.538,13.691
			c1.79,3.566,5.387,5.625,9.122,5.625c1.538,0,3.1-0.35,4.569-1.087l6.455-3.241C430.154,268.706,432.187,262.576,429.659,257.542z
			"/>
	</g>
</g>
<g>
	<g>
		<path d="M390.565,277.17c-2.527-5.033-8.655-7.063-13.691-4.538l-125.45,62.985c-5.034,2.527-7.066,8.657-4.539,13.691
			c1.791,3.566,5.388,5.625,9.123,5.625c1.538,0,3.1-0.348,4.569-1.087l125.45-62.985
			C391.061,288.334,393.094,282.206,390.565,277.17z"/>
	</g>
</g>
<g>
</g>
<g>
</g>
<g>
</g>
<g>
</g>
<g>
</g>
<g>
</g>
<g>
</g>
<g>
</g>
<g>
</g>
<g>
</g>
<g>
</g>
<g>
</g>
<g>
</g>
<g>
</g>
<g>
</g>
</svg>
