<?xml version="1.0" encoding="iso-8859-1"?>
<!-- Generator: Adobe Illustrator 19.0.0, SVG Export Plug-In . SVG Version: 6.00 Build 0)  -->
<svg version="1.1" id="Capa_1" xmlns="http://www.w3.org/2000/svg" xmlns:xlink="http://www.w3.org/1999/xlink" x="0px" y="0px"
	 viewBox="0 0 512 512" style="enable-background:new 0 0 512 512;" xml:space="preserve">
<g>
	<g>
		<g>
			<path d="M40.96,223.171v95.334C73.544,350.761,147.886,368.64,256,368.64s182.456-17.879,215.04-50.135v-95.334
				C435.63,247.276,371.343,266.24,256,266.24S76.37,247.276,40.96,223.171z"/>
			<path d="M40.96,346.051v94.269C40.96,487.383,149.135,512,256,512s215.04-24.617,215.04-71.68v-94.269
				C435.63,370.156,371.343,389.12,256,389.12S76.37,370.156,40.96,346.051z"/>
			<path d="M256,0C149.135,0,40.96,24.617,40.96,71.68v1.065C73.544,105.001,147.886,122.88,256,122.88
				s182.456-17.879,215.04-50.135V71.68C471.04,24.617,362.865,0,256,0z"/>
			<path d="M40.96,100.291v95.334C73.544,227.881,147.886,245.76,256,245.76s182.456-17.879,215.04-50.135v-95.334
				C435.63,124.396,371.343,143.36,256,143.36S76.37,124.396,40.96,100.291z"/>
		</g>
	</g>
</g>
<g>
</g>
<g>
</g>
<g>
</g>
<g>
</g>
<g>
</g>
<g>
</g>
<g>
</g>
<g>
</g>
<g>
</g>
<g>
</g>
<g>
</g>
<g>
</g>
<g>
</g>
<g>
</g>
<g>
</g>
</svg>
