<svg fill="none" height="512" viewBox="0 0 24 24" width="512" xmlns="http://www.w3.org/2000/svg"><g clip-rule="evenodd" fill="rgb(0,0,0)" fill-rule="evenodd"><path d="m5.39936 13.8997c.29289-.2929.76776-.2929 1.06066 0l5.53968 5.5396 5.5397-5.5396c.2928-.2929.7677-.2929 1.0606 0s.2929.7677 0 1.0606l-6.07 6.07c-.1406.1407-.3314.2197-.5303.2197s-.3897-.079-.5303-.2197l-6.07004-6.07c-.2929-.2929-.2929-.7677 0-1.0606z"/><path d="m11.9997 11.25c.4142 0 .75.3358.75.75v8.33c0 .4142-.3358.75-.75.75s-.75-.3358-.75-.75v-8.33c0-.4142.3358-.75.75-.75z"/><path d="m11.9997 2.75c.4142 0 .75.33579.75.75v4.53c0 .41421-.3358.75-.75.75s-.75-.33579-.75-.75v-4.53c0-.41421.3358-.75.75-.75z"/></g></svg>