<svg id="Capa_1" enable-background="new 0 0 512.051 512.051" height="512" viewBox="0 0 512.051 512.051" width="512" xmlns="http://www.w3.org/2000/svg"><g><g id="Layer_2_44_"><g id="Layer_3_44_"><path d="m268.271 211.293c1.046.278 2.122-.333 2.42-1.374.846-5.972 3.097-11.626 4.619-17.354-1.564-4.788-4.82.888-5.105 3.361-.571 3.878-5.549 12.841-1.934 15.367z"/><path d="m286.207 234.936c-1.691 1.871 1.057 4.661 2.78 2.78 8.455-9.766 18.464-18.041 28.368-26.233 2.779-12.44-29.045 21.011-31.148 23.453z"/><path d="m326.274 252.586c4.756-2.029 9.808-3.298 14.554-5.285 3.699-5.707-6.12-2.198-8.455-1.141-2.547 1.554-8.561 1.353-8.54 5.073.306 1.043 1.394 1.646 2.441 1.353z"/><path d="m265.132 238.064h.053z"/><path d="m353.056 250.578c-5.919 4.534-13.983 5.834-21.138 7.472-2.811.793-32.764 4.555-21.476 8.741 11.626-4.851 39.856-4.291 45.944-15.304-.035-.998-.873-1.778-1.87-1.742-.594.021-1.139.332-1.46.833z"/><path d="m282.824 225.677c3.919-18.032 9.125-35.76 15.579-53.046.888-2.378-2.907-3.403-3.794-1.057-1.247 3.741-23.189 64.302-11.785 54.103z"/><path d="m246.076 344.168c-3.35-1.459-4.64 12.831-5.866 15.632 1.289 4.407 4.566-.159 4.693-2.737.285-3.626 4.671-10.443 1.173-12.895z"/><path d="m301.194 310.526c-1.776-1.807-4.545.972-2.78 2.78 11.076 11.327 21.487 23.287 31.179 35.819 13.74 4.238-26.212-35.883-28.399-38.599z"/><path d="m258.695 352.359c-.18-4.027-.37-8.064-.56-12.091-.116-2.515-4.048-2.537-3.932 0 .602 8.033.306 16.234 1.353 24.193 5.887 5.538 2.843-9.376 3.139-12.102z"/><path d="m317.491 314.933c2.325.972 5.285 5.063 7.747 2.885.631-.933.385-2.202-.549-2.832 0 0 0 0-.001 0-2.98-2.114-7.673-5.02-10.738-7.081-.941-.539-2.14-.224-2.695.708-1.13 3.393 4.344 4.386 6.236 6.32z"/><path d="m208.143 211.208c-1.85-1.744-7.705-11.626-8.804-4.925 3.319 5.369 8.212 9.872 12.081 14.913.774.763 2.017.763 2.79 0 1.765-3.699-4.46-6.838-6.067-9.988z"/><path d="m351.133 299.872c-13.349 2.336-25.778-7.398-39.106-4.175-2.452.592-1.416 4.386 1.057 3.794 10.02-2.272 19.479 3.35 29.276 4.428 2.632 1.027 15.326-.03 8.773-4.047z"/><path d="m508.887 363.974c-1.208-1.41-2.557-2.692-4.027-3.826 10.347-9.364 6.341-24.869-8.128-25.144 3.329-39-42.107-25.155-46.039 18.591-1.404.946-2.726 2.006-3.953 3.171-1.533 0-3.044.063-4.566.063 11.277-9.333 11.806-30.555-7.018-28.209-14.681 2.6-20.715 15.515-30.164 24.795-10.897-2.026-21.608-4.946-32.024-8.73 6.479-3.974 7.081-12.334 8.952-18.295 3.667-7.398 8.55-16.604 5.475-25.524 16.847 4.471 95.429-7.652 103.165-23.337.664-2.82-.162-5.782-2.188-7.853-23.696-24.542-54.198-41.315-87.523-49.4 30.418-17.788 66.924-48.618 89.277-68.298 13.581-17.746-26.877-28.632-42.784-27.818v3.171-3.171c-39.962.454-79.998 20.863-106.664 51.704-2.25-.427-4.573-.234-6.722.56 19.68-33.589-8.973-63.637-41.082-39.275-7.198-6.046-17.376-7.525-26.423-7.113 24.309-11.795 14.363-40.712-12.26-27.237.486-1.437.983-2.864 1.501-4.291 1.483-.814 2.897-1.747 4.228-2.79 42.689 10.115 70.295-28.6 32.194-37.785 4.312-13.803-9.058-22.533-21.286-15.685-3.276-13.93-20.885-14.596-27.099-2.463-29.139-14.797-41.22 24.309-8.339 44.39.827 3.372 2.348 6.533 4.471 9.28-1.353 3.794-2.621 7.62-3.763 11.51-16.52-38.049-55.298 12.292-6.997 33.018-.402 3.012-.729 6.024-1.004 9.037-8.455-5.084-19.849-4.365-25.937 3.372-9.84-29.118-59.293-4.767-43.259 21.138-13.602.264-16.202 19.024-20.568 28.843-5.137 10.104-4.746 18.253 4.111 26.275 11.298 14.332 30.862 17.376 45.5 26.053-2.272 1.564-5.221 5.115-5.01 9.28-4.927-.303-9.869-.303-14.797 0-36.802-21.138-84.278-26.423-124.166-11.88-15.283 5.686-46.504 21.487-43.809 45.151 1.217 2.221 3.318 3.822 5.781 4.407 27.385 7.007 71.067 17.249 105.089 19.965-30.302 18.189-55.033 44.306-70.306 75.981-1.271 2.601-1.123 5.671.391 8.138 4.428 6.553 12.091 3.741 19.511 4.365 30.915.222 67.642-2.611 95.534-19.775 5.179 5.126 16.128 6.733 21.878.444-3.72 10.643-9.512 25.482 2.6 33.272 16.012 9.058 35.935 22.555 54.241 13.402 6.236 15.907 25.081 13.898 38.144 8.984 10.971-3.298 28.368-4.946 29.911-19.648 5.644-.328 10.22-4.629 11.711-10.146 9.1 20.494 25.366 12.461 34.371-3.467-10.495 35.829 40.363 46.229 30.65 9.512 3.298 2.357 6.648 4.598 10.051 6.754.024 3.467.774 6.891 2.198 10.051-13.423 35.829 19.87 59.631 33.948 29.868 12.419 5.718 25.789-5.718 19.817-18.623 13.803-2.114 19.024-17.217 7.124-25.44 12.429-11.446 6.944-30.65-10.823-30.407 3.393-7.483-1.12-14.998-7.61-19.69 4.048.137 8.075.169 12.123.085 1.935 2.879 4.456 5.317 7.398 7.155 8.603 37.267 49.527 38.736 44.792 6.13 10.381-1.636 17.906-13.897 10.201-22.595zm-118.627-89.172c-3.615 7.398-13.983 4.534-20.673 5.57-10.157-4.133-19.701-5.781-31.179-5.855-16.911-.486-34.255 7.937-49.675-2.251.085-.55.169-1.057.201-1.649 11.045-12.017 22.555-24.309 35.745-32.933 6.838-4.481 15.272-8.001 20.557-14.712 3.942-1.057 8.064-3.815 12.218-2.452 6.183 3.171 12.049 12.398 7.071 18.792 4.45 3.815 10.051 1.057 15.135 1.427 6.944 1.607 6.024 10.707 7.906 16.139.812 5.897 4.131 11.953 2.694 17.924zm25.366 7.092c-6.759-.576-13.45-1.779-19.986-3.593.606-1.19 1.022-2.466 1.237-3.784 2.431 1.416 26.824 2.949 18.739 7.377zm36.632-12.883c9.417 9.385-52.169-2.959-56.355-4.133l-1.057-4.291c18.835 4.798 38.166 6.743 57.412 8.424zm-51.25-20.166c7.811.412 15.663-.74 23.442-.687 10.104 6.616-28.442 4.281-31.433 4.312-.296-1.321-.571-2.642-.888-3.985 2.949.137 5.908.264 8.878.317v.043zm29.953-92.818c8.276 1.659-8.075 8.36-10.146 9.872-21.078 12.01-41.42 25.265-60.92 39.698.372-1.643.436-3.342.19-5.01 22.629-16.245 45.997-31.982 70.877-44.602zm-46.631 11.742c2.568-1.226 28.463-20.959 24.076-10.453-17.915 10.569-35.385 22.259-50.732 36.537-.624-1.194-1.3-2.346-2.019-3.456 9.04-8.191 18.619-15.765 28.674-22.671v.043zm-28.483 44.57c3.657-1.744 67.431-37.425 59.98-24.911-18.94 8.55-38.049 16.911-56.122 27.226-1.843-.708-3.827-.976-5.792-.782.674-.487 1.32-1.014 1.934-1.575zm-88.01-76.098c8.572.137 19.722 1.363 24.076 9.84 13.454-14.797 43.09-17.323 42.15 8.857-.539 12.482-9.597 22.407-11.52 34.498 5.549-2.114 10.569-7.314 16.72-7.398 5.961 2.367 16.002 16.086 14.311 22.734-.867 2.642-3.171 3.731-5.285 5.285-4.534 3.446-7.092 8.857-11.51 12.461-18.052 11.002-35.195 23.411-48.798 39.856-2.22-7.483-8.804-12.609-16.583-14.533 0-.528 0-1.057 0-1.564 9.216-6.151 5.834-22.385-5.813-22.618-9.597-.835-15.262 11.098-10.654 18.855-.095 1.691-.19 3.34-.18 5.031-.306.095-.602.211-.898.317-5.633-23.548-15.642-102.51 13.983-111.652zm-2.938 105.808c-6.997 0-6.743-12.176.148-12.059 7.493-.19 6.806 11.996-.148 12.028zm1.184 25.429c-4.841-2.864-4.344-14.3-4.936-19.733 1.265.463 2.606.679 3.953.634.057 5.685 1.032 11.324 2.885 16.699.301.964-.236 1.989-1.2 2.291-.227.071-.466.097-.703.076zm-40.469 19.5c6.648.127 13.085-1.511 19.31-3.615 8.36 6.711-22.893 8.455-26.624 7.028.624-1.177 1.021-2.461 1.173-3.784 2.038.251 4.088.374 6.141.371zm-.507-29.224c-5.443 5.084-13.676-3.53-9.692-9.195 5.528-7.684 16.668 2.991 9.692 9.174zm9.068 10.517c-1.914-1.664-3.738-3.428-5.464-5.285 1.041-.809 1.942-1.783 2.663-2.885 5.58 6.437 12.989 10.707 19.828 15.494-.476 7.557-14.226-5.528-17.027-7.346zm11.33-31.243c2.695 4.661-.338 13.592-6.648 9.766s1.173-17.872 6.648-9.787zm-1.712-73.878c.154-8.035.783-16.052 1.881-24.013l11.626-4.978c-7.969 7.726-11.098 18.2-13.507 28.97zm-5.729 93.368c-.254.19-.507.391-.75.602-1.312-1.296-2.558-2.657-3.731-4.08.029-.894-.05-1.788-.233-2.663.86.925 1.872 1.697 2.991 2.283.55 1.289 1.12 2.611 1.723 3.837zm7.399.613c-.581-1.11-1.141-2.22-1.68-3.35 1.304-.226 2.552-.7 3.678-1.395 2.491 5.159 5.547 10.026 9.111 14.511.735.781.735 1.999 0 2.78-4.122 2.505-8.825-9.724-11.108-12.567v.021zm-9.322-181.789c-.17.343-.322.697-.454 1.057-26.37-17.354-9.882-49.368 10.622-25.228 3.033-19.236 20.99-17.735 19.711 2.114 13.867-14.004 28.526-5.39 15.452 11.742 38.049-5.211 23.115 31.707-15.716 25.186 11.34-17.186-21.276-30.471-29.615-14.871zm-19.521 46.092c-11.996-12.197 1.797-35.142 12.324-17.238 3.159 8.144 5.814 16.473 7.948 24.943 1.877-10.434 4.537-20.711 7.959-30.746 1.124.687 2.369 1.15 3.667 1.363-2.486 7.276-4.556 14.686-6.204 22.195 25.155-34.276 58.394-7.06-2.399 12.683-1.057 6.849-1.776 13.74-2.114 20.684-1.134-1.383-2.363-2.687-3.678-3.9.444-5.954 1.131-11.883 2.061-17.788-.719.191-1.486-.01-2.019-.528-6.522-2.388-13.011-6.288-17.545-11.668zm-32.046 122.084c-13.285-5.475-27.839-9.639-37.436-21.138-7.219-6.341-6.933-11.626-2.875-19.775 4.724-8.984 4.587-25.038 17.629-25.186 13.454-3.171-18.073-25.281 21.138-34.096 13.412-2.114 11.626 16.911 20.462 14.268 15.632-19.172 34.402 2.928 38.376 20.081-1.205 16.954-.566 33.989 1.902 50.806-8.698-2.198-14.554 7.726-13.497 15.537-20.229-17.587-33.515 20.673-7.789 21.55l.877.983c-11.32-1.416-22.565-2.917-34.033-4.059-.178-8.106 18.107-6.922-4.754-18.971zm-96.327 54.029c-7.726-5.676 16.678-4.228 19.511-4.936.159 1.289.317 2.579.497 3.889-6.659.339-13.35 1.047-20.008 1.047zm19.732-14.363c-15.737-1.881-31.633-2.114-47.392-3.255-11.002-8.223 45.363-.211 49.062-.497-.742 1.164-1.305 2.432-1.67 3.763zm-3.646-13.878c-2.875-1.49-31.359.328-23.252-5.507 16.276-.233 32.659 2.642 48.618 5.824-8.339 3.942-16.678.444-25.366-.306zm-9.649 85.843c11.203-3.34 22.671-6.098 33.409-10.876 2.397.728 4.892 1.085 7.398 1.057-2.885 1.469-48.872 20.367-40.807 9.819zm-5.528 26.624c-2.42.856-18.316 9.311-14.342 1.902 20.145-8.455 40.068-17.798 58.246-30.08-.005 1.441.242 2.872.729 4.228-14.176 9.227-29.107 17.239-44.633 23.95zm43.767-7.896c-2.251 1.289-25.144 16.847-20.631 7.398 9.259-5.401 18.802-10.337 27.374-16.826 1.057.56 1.85.909 2.78 1.395.074.338.137.814.19 1.279-3.171 2.368-6.405 4.619-9.713 6.754zm44.443 6.342c-8.181 14.258-24.584.867-27.976-10.167-.634-2.748-.137-6.796-2.484-8.751-4.767-2.346-10.178-5.813-6.257-11.742 3.541-4.164 11.774-10.759.56-10.569-17.968 3.012-19.722-10.707-23.094-24.584-1.416-12.112-12.324-34.17 6.532-36.633 33.314-12.556 65.941-10.22 100.333-4.598-.972 2.367-1.616 4.857-1.913 7.398-1.677-.085-3.347-.279-4.999-.581-6.257-11.626-26.687-6.912-24.309 6.976 1.342 8.096 11.024 11.922 18.348 8.751 4.95 1.124 10.018 1.634 15.093 1.522 1.558 2.346 3.553 4.37 5.876 5.961-21.117 23.685-36.03 52.159-55.71 76.975zm35.85-94.594c-.75 6.341-12.081 6.542-13.243.307-1.099-8.402 13.159-8.033 13.243-.349zm90.43 132.727c-1.807.528-3.424-.307-5.285-.349-3.097.613-.402 8.455-3.636 11.066-8.455 7.927-21.614 7.863-32.162 11.679-24.711 7.874-17.756-18.707-32.585-9.924-9.237 6.341-52.285-10.865-50.425-22.914 3.171-21.498 14.48-40.807 27.025-58.046 9.988-14.945 20.081-30.238 32.458-43.883 7.018 2.198 16.319-.507 21.804-3.171 10.125 16.002 16.911 33.409 24.119 50.732 3.171 11.647 35.195 60.181 18.686 64.768v.042zm38.049-7.715c-19.31 31.158-28.537-20.293-36.411-33.568-11.515-26.404-24.46-52.16-38.778-77.155 8.286-4.841 16.911-12.831 20.43-21.413 22.29 12.958 48.237-3.668 71.87 4.978 6.257 1.881 16.181 4.228 16.763 12.133 11.14 5.855 5.094 20.007.497 28.368-3.985 17.259-6.067 19.024-23.072 13.972-1.511-.053-2.019.254-.92 1.533 3.52 4.418 9.417 5.75 12.007 11.193 6.944 18.739-12.799 44.401-22.396 59.959zm30.386-48.734c9.402 3.158 19.006 5.679 28.748 7.546.546 4.795 1.628 9.513 3.224 14.068-12.408-5.041-25.651 1.934-37.869 4.428-.782-.761-1.554-1.533-2.325-2.304 3.286-7.187 7.101-14.554 8.222-23.738zm20.377 55.16.201.137c-.886.97-1.578 2.1-2.04 3.329-8.874-5.796-17.301-12.252-25.207-19.31 3.255 10.21 11.235 21.054 8.804 31.961-2.685 5.443-10.305 5.179-14.258 1.268-9.829-9.185-5.348-24.721.803-34.688.087-.741.568-1.376 1.258-1.659-1.057-.962-2.04-1.945-3.055-2.928.645-1.173 1.279-2.367 1.902-3.562 1.152 1.131 2.325 2.262 3.509 3.372 59.536-21.899 51.144 19.902 9.692 8.508 5.864 4.86 11.993 9.39 18.359 13.571h.032zm13.349-9.829c4.566-2.875 7.071-6.415 7.483-10.506 1.783 1.469 3.765 2.679 5.887 3.594-5.579 3.656-10.636 8.055-15.029 13.074-1.682-.002-3.361.136-5.02.412-1.3-.814-2.579-1.638-3.847-2.473 3.718-.72 7.275-2.109 10.495-4.101zm34.973-8.001c19.828 0 12.841 20.546-.782 25.038 20.863 5.443 14.522 21.244-4.946 18.707 13.275 14.892 0 27.099-14.205 13.835-1.311 31.707-34.011 16.572-23.95-13.338 16.382 9.206 35.153-22.692 15.209-29.361 7.758-7.652 17.714-14.046 28.674-14.881zm1.11-32.204c-10.111-.003-20.209-.727-30.217-2.167 8.36 6.711 21.001 11.341 25.007 21.772.782 6.024-5.76 10.02-11.182 8.941-13.254-2.23-18.115-17.65-18.538-29.329-.336-.679-.283-1.485.137-2.114-11.942-1.986-23.695-4.981-35.132-8.952-.204-1.545-.558-3.068-1.057-4.545 11.829 4.292 24.024 7.504 36.432 9.597 37.827-51.355 53.363-11.394 12.778 1.733 7.671.804 15.381 1.174 23.094 1.11-.199 1.298-.149 2.621.148 3.9zm59.715 11.626c-3.958 2.159-8.564 2.817-12.968 1.85 16.403 27.163-19.215 32.585-27.342 2.114 18.602-1.215 16.911-38.387-3.551-32.87 6.278-39.106 45.828-41.146 28.864-6.944 20.398-6.997 23.886 9.65 6.225 18.316 7.673 1.501 18.887 11.341 8.772 17.566z"/><path d="m235.422 333.229c-4.365 10.173-7.652 20.776-9.808 31.633-.518 3.319-7.324 40.585.719 32.828.433-21.318 3.794-42.805 12.482-62.474.983-2.305-2.4-4.302-3.393-1.987z"/><path d="m210.574 235.189c1.085 0 1.966-.88 1.966-1.966 0-1.085-.88-1.966-1.966-1.966-1.839 0-3.35-1.363-4.735-2.441-10.368-7.673-18.898-17.428-27.374-27.004-12.239-1.596 27.744 35.734 32.109 33.377z"/><path d="m201.918 189.806c10.184 11.531 18.773 24.379 25.535 38.197 11.013 5.676-8.741-22.872-10.337-25.228-5.285-7.06-10.453-14.681-17.101-20.483-6.098-.709-.01 5.939 1.903 7.514z"/><path d="m188.062 296.12c-10.569 3.826-21.294 7.268-32.172 10.326-2.452 1.057-16.594 2.589-9.924 6.458 2.631-.296 56.776-13.898 42.096-16.784z"/><path d="m188.897 335.036c7.398-8.043 14.321-16.467 20.874-25.186 1.522-2.019-1.892-3.985-3.393-1.987-4.291 5.694-8.759 11.246-13.402 16.657-1.141 2.854-21.064 19.172-11.626 18.179 2.843-2.157 5.031-5.116 7.547-7.663z"/><path d="m194.234 305.537c2.114-1.311.18-4.714-1.987-3.393-7.578 4.883-15.949 8.624-23.59 13.243-3.446 9.64 22.597-8.835 25.577-9.85z"/></g></g></g></svg>