<svg id="Capa_1" enable-background="new 0 0 512.002 512.002" height="512" viewBox="0 0 512.002 512.002" width="512" xmlns="http://www.w3.org/2000/svg"><g><g id="Layer_2_23_"><g id="Layer_3_23_"><path d="m479.781 167.106c-.778-11.883-2.228-25.016-8.806-35.508 7.733-30.026 2.098-61.302-24.309-74.765 21.468-12.33 25.016-55.843-5.776-56.833-23.177 1.309-44.515 33.009-27.562 52.731-.507 1.32-.99 2.641-1.438 3.961-10.032 4.126-18.402 10.362-26.655 16.434 1.008-2.787 1.87-5.623 2.582-8.5 16.693-11.789 22.469-52.401-6.13-52.955-25.24 1.58-40.318 34.459-21.361 51.871-2.948 8.545-5.436 17.241-7.451 26.053-9.785 1.521-17.683-2.275-26.772-7.557-1.603-7.427-2.688-14.665-4.716-22.163 12.968-19.086 1.426-55.207-25.075-51.222-24.827 7.451-24.132 44.797-2.735 57.765-9.772-3.043-20.062-4.049-30.238-2.959-.601-2.428-1.25-4.869-2.004-7.297 10.138-22.304-3.537-62.634-32.726-52.484-7.439 3.372-11.577 10.61-11.789 20.336-5.458 16.056 3.713 33.799 19.452 41.426.436 1.709.908 3.407 1.379 5.081-8.618 3.784-16.834 9.749-24.32 15.738-2.157-3.949-4.185-7.957-6.555-11.954 8.405-23.707-22.835-52.401-44.904-41.414-25.193 14.653-3.537 54.948 22.399 55.738 2.358 3.713 4.586 7.509 6.684 11.364-10.457 3.702-21.55 1.462-32.36-1.497-10.492-16.162-23.118-30.781-36.545-44.609 2.358-20.383-20.807-41.626-40.931-36.651-32.631 12.921-7.285 59.109 22.257 55.643 4.232 3.833 8.239 7.907 12.001 12.201-26.1-8.122-71.558 7.981-61.632 40.589-43.312 25.747-10.032 71.428 3.03 103.187 7.333 18.108 16.162 45.375 22.729 66.501 26.525 84.172 35.166 125.574 127.378 157.003-24.367 27.975.566 70.521 31.83 36.427 3.808 28.717 27.763 31.394 38.373 4.657 10.032 19.239 41.332 17.247 44.078-6.566 15.927 17.506 51.753 14.217 33.857-14.406 38.479 1.32 30.333-30.061 2.051-41.261 82.675-51.434 121.378-164.925 122.71-264.105zm-62.339-143.069c18.709-31.229 52.283-14.512 33.846 18.131-14.053 24.533-47.828 7.215-33.846-18.131zm-11.86 86.483c3.323-17.892 7.817-35.546 13.451-52.849 3.67 2.239 7.869 3.459 12.166 3.537-8.674 23.928-14.391 48.826-17.023 74.14-4.48 4.845-8.853 9.525-13.251 14.441.799-13.168 2.354-26.28 4.657-39.269zm-46.176-72.595c6.837-24.297 43.265-26.914 34.27 4.35-6.378 28.199-38.444 25.275-34.27-4.35zm-2.995 70.933c2.087-14.064 5.445-27.91 10.032-41.367 4.023 1.728 8.483 2.168 12.767 1.261-7.203 19.011-11.538 38.988-12.862 59.274-3.212-3.563-7.007-6.552-11.223-8.842.414-3.441.826-6.884 1.286-10.326zm-33.987-5.317c.53 3.985.967 7.981 1.356 11.977-4.061.96-7.983 2.433-11.671 4.385-1.533-17.271-3.937-34.4-9.018-51.046 4.374 0 8.83-.578 12.484-3.136 2.641 12.838 5.246 24.933 6.896 37.819zm-32.278-50.032c-8.476-11.86-7.863-33.244 8.252-38.043 1.877-.534 3.895-.091 5.376 1.179 15.809 1.804 18.284 23.106 13.923 35.366-4.056 12.827-21.574 12.639-27.551 1.498zm-25.546 46.59c1.179 5.894 2.358 11.789 3.442 17.683-4.053-.296-8.125-.177-12.154.354-3.242-17.106-6.838-34.093-11.671-50.833 4.317.198 8.542-1.286 11.789-4.138 3.018 12.366 6 24.52 8.594 36.934zm-29.118-43.289c-9.891-6.826-16.198-19.829-11.471-31.559-1.356-20.937 23.696-20.465 30.026-3.395 7.816 13.77 3.348 49.478-18.555 34.954zm-32.832 24.344c9.631 17.2 18.119 34.683 23.931 53.509-3.236 3.767-6.27 7.702-9.089 11.789-5.663-20.711-14.228-40.516-25.44-58.826 4.06-1.143 7.726-3.383 10.598-6.472zm-17.919.413c-17.966-.118-38.467-30.828-19.098-42.558 23.967-10.928 55.502 39.292 19.098 42.558zm-77.806-16.611c-21.656 7.97-49.042-28.67-24.085-40.836 20.371-5.635 46.13 28.128 24.061 40.836zm6.519 7.651c-.637-.648-1.332-1.297-2.039-1.945 3.744-1.927 6.756-5.023 8.582-8.818 17.907 18.556 33.657 39.221 45.587 62.162-6.184-4.171-12.83-7.612-19.805-10.256-9.253-14.852-20.1-28.647-32.349-41.143zm-4.115 50.421c76.769 82.981 62.115 214.238 108.563 310.494-45.469-41.556-56.928-105.757-82.522-159.385-16.988-43.454-65.876-95.69-35.213-142.645 2.528-3.337 5.624-6.203 9.148-8.464zm61.456 305.967c-20.041-10.834-39.28-24.58-50.598-44.797-19.263-37.04-29.036-78.148-42.44-117.499-7.227-22.21-15.149-44.314-25.605-65.216-11.235-20.56-22.741-50.315.696-66.807 26.336 104.638 65.911 209.617 127.107 299.023-3.089-1.509-6.142-3.065-9.16-4.704zm32.289 14.677c-54.57-66.737-86.2-149.187-114.717-229.646-8.983-28.093-20.194-56.15-24.026-85.528 9.423-3.339 19.707-3.339 29.13 0-31.488 52.413 16.893 101.749 35.366 148.539 28.659 58.803 39.882 135.571 99.781 172.329-8.721-.791-17.303-2.704-25.534-5.694zm-82.05-325.371c24.509-4.574 44.974 15.184 63.506 28.081 46.413 88.192 31.382 195.694 45.552 291.372-44.314-103.624-33.633-229.587-109.058-319.477zm130.101 331.643c-2.491-.415-4.952-.994-7.368-1.733-16.009-96.008-1.297-197.922-40.306-289.404 13.404 7.781 19.228-9.207 26.548-17.271.33-.401.672-.802 1.014-1.179 48.771 94.712 29.909 207.708 20.112 309.587zm21.315-.837.365-.083-.365.094c-2.912.759-5.887 1.25-8.889 1.462 8.806-105.168 29.201-221.877-23.601-318.722-1.729 1.273-3.372 2.66-4.916 4.15 7.663-8.111 20.041-12.26 31.665-11.199 50.81 98.991 36.534 221.04 5.741 324.346zm9.431-321.611c6.445 1.917 12.678 4.484 18.603 7.663 81.661 34.435 54.17 268.679-13.404 307.688 28.08-101.066 40.541-217.681-5.199-315.351zm33.68 313.582c-5.94 1.548-11.983 2.671-18.084 3.36 64.001-49.348 91.693-270.164 10.398-313.229 6.077-5.039 13.414-8.324 21.22-9.502 9.681-1.591 19.591.864 27.409 6.79 36.958 102.433 23.99 224.046-40.943 312.639zm33.964-20.217c-4.716 4.492-8.429 10.775-14.382 13.557 51.187-79.846 66.23-181.229 43.89-273.088 17.33 17.365 33.374-17.789 45.906-26.867 11.281 98.956-10.022 209.063-75.414 286.398zm21.998-8.182c57.989-78.796 78.03-190.354 64.367-286.327 51.057-16.162 36.958 78.431 30.922 106.099-16.021 66.465-39.375 136.597-95.289 180.263z"/></g></g></g></svg>