<svg id="Layer_1" enable-background="new 0 0 66 66" height="512" viewBox="0 0 66 66" width="512" xmlns="http://www.w3.org/2000/svg"><g><path d="m63.31 26.755c-.66-.641-1.452-1.063-2.219-1.473l-36.55-19.488c-5.137-2.739-7.494-1.85-9.839 2.636-2.023 3.868-10.029 21.1-12.422 25.678-.543 1.038-1.025 2.065-1.164 3.117-.129.16-.161.331-.037.545-.02 2.592 2.201 3.975 4.556 5.082l37.369 17.548c5.453 2.563 7.774 1.534 10.166-3.385 3.118-6.408 5.343-12.506 9.02-18.501 1.02-1.664 2.175-3.549 2.626-5.636.511-2.377-.065-4.724-1.506-6.123zm-39.24-20.078 36.551 19.488c.946.505 1.769.941 2.401 1.784l-23.892 7.882c-5.978 1.968-8.035 1.043-10.438-4.657-1.189-2.818-9.824-23.282-10.712-25.388 1.864-1.2 4.116-.162 6.09.891zm-20.903 27.894c2.39-4.57 10.408-21.827 12.422-25.679.458-.877.954-1.757 1.589-2.433l9.237 21.891-24.181 8.4c.195-.713.547-1.44.933-2.179zm-1.091 3.293 24.728-8.589.965 2.287c2.829 6.709 5.591 7.224 12.249 5.028l8.597 19.477-.255.255-2.385-2.384c-.098-.098-.256-.098-.354 0s-.098.256 0 .354l.848.848-1.468 1.468-.791-.791c-.098-.098-.256-.098-.354 0-.001.001 0 .003-.002.004-.067-.003-.135.018-.186.069l-.859.86-.478-.478c-.098-.098-.256-.098-.354 0s-.098.256 0 .354l.478.478-1.033 1.033c-.012-.024-.01-.052-.03-.072l-1.218-1.218 1.306-1.306c.098-.098.098-.256 0-.354s-.256-.098-.354 0l-1.306 1.306-.222-.222c-.098-.098-.256-.098-.354 0s-.098.256 0 .354l.222.222-.538.538-32.867-15.437c-1.876-.882-3.953-2.011-3.985-4.084zm46.755 18.693.186.421-.303-.303zm-.825.118-1.468 1.468-1.183-1.183 1.468-1.468zm-5.328 2.468-1.059-.497 1.191-1.191.671.671-.762.762c-.07.071-.072.167-.041.255zm.486-2.041.813-.813.672.671-.813.813zm-2.204 1.235-1.548-.727.411-.411zm2.469 1.159-.454-.213c.034-.012.071-.014.098-.041l.762-.762.577.577c.097.097.255.098.354 0 .098-.098.098-.256 0-.354l-.577-.577.813-.813 1.183 1.183-.962.962c-.098.098-.098.256 0 .354.097.097.255.098.354 0l.962-.962.966.966c.097.097.255.098.354 0 .098-.098.098-.256 0-.354l-.966-.966 1.468-1.468 1.198 1.198c.003.003.008.002.012.005l.09.205-1.705 1.705c-.098.098-.098.256 0 .354.097.097.255.098.354 0l1.568-1.568.35.794c-1.952 1.826-4.361.92-6.799-.225zm7.526-.602-.32-.726 1.677-1.677c-.014.029-.027.058-.041.087-.406.835-.823 1.639-1.316 2.316zm12.883-26.226c-.415 1.92-1.476 3.65-2.502 5.323-.608.992-1.175 1.984-1.713 2.979-.008-.012-.005-.027-.016-.037l-.825-.826c-.098-.097-.256-.099-.354 0-.098.098-.098.256 0 .354l.401.401c-.009.007-.022.004-.031.013l-1.11 1.11c-.098.098-.098.256 0 .354.097.097.255.098.354 0l1.11-1.11c.008-.008.006-.021.013-.03l.089.089c.046.046.105.065.165.068-.361.678-.71 1.358-1.049 2.04l-.841-.841c-.098-.098-.256-.098-.354 0s-.098.256 0 .354l.871.871c.03.03.071.033.109.045-.621 1.263-1.215 2.537-1.801 3.828-.003.003-.008.002-.011.005l-1.921 1.92-1.012-1.012 1.553-1.553.827.827c.097.097.255.098.354 0 .098-.098.098-.256 0-.354l-1.289-1.289c-.098-.098-.256-.098-.354 0s-.098.256 0 .354l.108.108-1.568 1.567c-.097-.061-.221-.064-.305.02s-.081.209-.02.305l-.435.435c-.098.098-.098.256 0 .354.099.099.257.096.354 0l.421-.421 1.333 1.333c.097.097.255.098.354 0 .085-.085.082-.21.019-.307l1.015-1.014c-.729 1.623-1.669 3.746-2.837 6.228l-2.521 2.521-.829-1.879.021-.021c.098-.098.098-.256 0-.354-.059-.059-.136-.07-.212-.059l-8.426-19.091 22.56-7.442c.539 1.242.551 2.69.305 3.834z"/><path d="m27.032 11.741-1.046 1.046c-.098.098-.098.256 0 .354.097.097.255.098.354 0l1.154-1.154c.452.241.905.482 1.357.724l-.987.986c-.098.098-.098.256 0 .354.099.099.257.096.354 0l1.094-1.094c.489.262.976.524 1.465.787l-.637.636c-.098.098-.098.256 0 .354.099.099.257.096.354 0l.74-.74c.635.343 1.269.688 1.903 1.033l-.891.891c-.098.098-.098.256 0 .354.097.097.255.098.354 0l.996-.996c.278.151.556.301.833.452l-.76.76c-.098.098-.098.256 0 .354.097.097.255.098.354 0l.864-.864c.657.359 1.312.721 1.968 1.082l-.624.624c-.098.098-.098.256 0 .354.097.097.255.098.354 0l.726-.727c.484.267.968.533 1.452.801l-.939.939c-.098.098-.098.256 0 .354.097.097.255.098.354 0l1.041-1.041c.496.275.992.547 1.487.823l-.889.889c-.098.098-.098.256 0 .354.097.097.255.098.354 0l.989-.989c.47.262.937.526 1.407.789l-.813.813c-.098.098-.098.256 0 .354.097.097.255.098.354 0l.913-.913c.833.467 1.669.932 2.498 1.4.127.07.275.021.341-.095.067-.12.025-.272-.095-.341-.789-.446-1.585-.888-2.377-1.332l.802-.802c.098-.098.098-.256 0-.354s-.256-.098-.354 0l-.901.901c-.472-.264-.942-.53-1.415-.793.079-.098.082-.239-.01-.331-.098-.098-.256-.098-.354 0l-.082.081c-.495-.275-.99-.549-1.486-.823l.635-.635c.098-.098.098-.256 0-.354s-.256-.098-.354 0l-.737.737c-.484-.268-.968-.534-1.452-.801l1.137-1.138c.098-.098.098-.256 0-.354s-.256-.098-.354 0l-1.24 1.24c-.656-.361-1.31-.724-1.967-1.082l.531-.531c.098-.098.098-.256 0-.354s-.256-.098-.354 0l-.635.635c-.278-.151-.555-.301-.833-.452l.174-.174c.098-.098.098-.256 0-.354s-.256-.098-.354 0l-.278.278c-.634-.345-1.269-.69-1.903-1.033l.41-.41c.098-.098.098-.256 0-.354-.097-.097-.255-.099-.354 0l-.515.515c-.488-.263-.976-.526-1.464-.788l.65-.649c.098-.098.098-.256 0-.354-.097-.097-.255-.099-.354 0l-.757.757c-.453-.243-.905-.483-1.357-.724l.332-.332c.098-.098.098-.256 0-.354s-.256-.098-.354 0l-.44.44c-.728-.388-1.457-.781-2.183-1.165-.119-.062-.272-.019-.338.104-.064.122-.019.273.104.338.682.361 1.366.73 2.048 1.094z"/><path d="m51.553 50.352c-.098-.098-.256-.098-.354 0s-.098.256 0 .354l.506.506-1.468 1.468-.563-.563c-.098-.098-.256-.098-.354 0s-.098.256 0 .354l.563.563-.278.278c-.098.098-.098.256 0 .354.097.097.255.098.354 0l.278-.278 1.302 1.302v.001l.001.001.54.539c.096.096.255.099.354 0 .098-.098.098-.256 0-.354l-.364-.364 1.516-1.516c.085.005.139-.019.188-.068.052-.052.072-.12.068-.188l.353-.353c.098-.098.098-.256 0-.354s-.256-.098-.354 0l-.304.304-1.126-1.126.563-.563c.098-.098.098-.256 0-.354s-.256-.098-.354 0l-.563.563zm1.633 2.339-1.468 1.468-1.127-1.126 1.468-1.468z"/><path d="m56.527 43.942-.136-.136c-.097-.097-.255-.099-.354 0-.098.098-.098.256 0 .354l.136.137-.762.763c-.098.098-.098.256 0 .354.096.096.255.099.354 0l.762-.763.563.563c.099.099.257.096.354 0 .098-.098.098-.256 0-.354l-.563-.564.506-.507c.098-.098.098-.256 0-.354-.098-.099-.256-.097-.354 0z"/><path d="m24.555 32.492c-.487.155-.97.329-1.455.491-.015-.059-.036-.117-.041-.178-.012-.137-.112-.24-.271-.228-.138.012-.239.133-.228.271.009.101.04.197.067.294-.39.132-.781.258-1.17.395l-.453-.669c-.077-.116-.233-.145-.347-.067-.115.077-.145.232-.067.347l.377.557c-.703.251-1.399.523-2.098.789-.051-.11-.105-.219-.139-.335-.039-.132-.181-.209-.311-.17-.132.039-.208.178-.17.311.037.129.099.248.154.37-.925.357-1.842.73-2.757 1.112-.283-.347-.489-.754-.573-1.192-.025-.135-.154-.229-.293-.197-.136.026-.224.157-.197.293.091.47.301.91.588 1.294-.673.285-1.342.575-2.008.873l-.527-.849c-.072-.117-.227-.154-.344-.08-.117.072-.153.227-.08.344l.493.794c-.669.303-1.343.599-2.005.916-.125.06-.178.209-.118.333.06.126.21.178.333.118.678-.324 1.369-.628 2.056-.939.396.639.878 1.297 1.579.947.123-.061.174-.211.112-.335-.06-.123-.208-.173-.335-.112-.36.179-.687-.368-.898-.709.692-.309 1.388-.608 2.088-.903.484.475 1.105.812 1.773.917.144.021.265-.078.286-.208.021-.137-.072-.265-.208-.286-.496-.077-.957-.31-1.341-.635.87-.361 1.742-.714 2.621-1.053.308.461.728.847 1.232 1.079.124.057.274.004.332-.123.058-.126.002-.274-.123-.332-.386-.177-.711-.463-.962-.804.709-.269 1.415-.545 2.129-.799l.431.636c.08.117.237.142.348.066.114-.077.144-.233.066-.348l-.353-.521c.359-.126.719-.242 1.079-.364.176.279.422.512.725.65.121.057.273.004.331-.124.058-.126.002-.274-.124-.331-.174-.079-.323-.208-.441-.36.463-.155.924-.321 1.388-.469.131-.042.204-.183.162-.314s-.179-.201-.313-.163z"/><path d="m10.454 25.45h.376v2.952c0 .138.112.25.25.25s.25-.112.25-.25v-2.952h1.15v1.857c0 .138.112.25.25.25s.25-.112.25-.25v-1.857h2.062v.403c0 .138.112.25.25.25s.25-.112.25-.25v-.403h.205c.138 0 .25-.112.25-.25s-.112-.25-.25-.25h-.205v-2.175h.437c.138 0 .25-.112.25-.25s-.112-.25-.25-.25h-.437v-2.573h1.003c.138 0 .25-.112.25-.25s-.112-.25-.25-.25h-1.003v-1.4c0-.138-.112-.25-.25-.25s-.25.112-.25.25v1.4h-.889c-.138 0-.25.112-.25.25s.112.25.25.25h.889v2.573h-2.062v-.604c0-.138-.112-.25-.25-.25s-.25.112-.25.25v.604h-.319c-.138 0-.25.112-.25.25s.112.25.25.25h.319v2.175h-1.15v-1.002c0-.138-.112-.25-.25-.25s-.25.112-.25.25v1.002h-.376c-.138 0-.25.112-.25.25s.112.25.25.25zm2.526-2.675h2.062v2.175h-2.062z"/></g></svg>