<svg id="Layer_4" height="512" viewBox="0 0 250 250" width="512" xmlns="http://www.w3.org/2000/svg" data-name="Layer 4"><path d="m68 94.3c-4.81-4.15-11.51-6.73-14.62-13.67 4.92.45 11.56 9.28 14.62 13.67z"/><path d="m100.81 124.84c-7.76 12.77-20.33 21.16-32.07 30.82-14.52 15.72-28 32.6-47.11 42.7 10.36-15.72 25-28.25 40.65-39.74 13.72-10.26 22.64-28.09 38.53-33.78z"/><path d="m228.9 198.46c-13.35-6.87-22.62-18.85-33.2-29.92-16.81-13.42-34.68-25.68-46.21-44.13 16.5 9.27 30.1 23 42.76 37.88 11.29 13.05 29.75 20.71 36.65 36.17z"/><path d="m45.93 73.91c-25.35-22.58-45.09-30.37.5-29.31 30.3-.57 54.56-.27 83 .81 84.13 3.66 116-8.11 97.93 10.37-31.86 30.55-64.36 61.53-97.52 90.66-3.06 2.17-8.94 1.73-11.81-2.19-13.43-13.93-31.39-29.41-42.47-43.45 60.33 49.37 42.37 47.88 62 31 28.12-27 60.62-56.13 90.2-82.71-67.76-2.73-137.76 1.31-204.89.42 6.72 7.64 18.56 16.98 23.06 24.4z"/><path d="m228 203.3c-66.88.15-135.3 3.77-201.91 1.89-5 .4-9-1.05-10.74-5.88.11-48 1.46-97.59.16-145.67-.51-10.4 12.49-8.19 19.75-8.5 15.42-.28 29-.52 44.45-.68 41-.34 77.58-.69 122.38-.66 22.85 1.2 36.83-5.42 34.91 15.28-3.73 152.24.24 141.55-9 144.22zm0-.6c9.77.57 4.25-22.71 5.43-28.46-.35-24-1.1-46.53-1.69-70.51-2.11-31.44 2.9-55.84-4.91-53.64-221.62 1.41-206.78-6.76-208.36 4.98-.67 37.24-.78 76.22-.08 111.85 1.3 14.28-2.25 33.52 4 33.91 68.91-1.83 137.09 1.61 205.61 1.87z"/></svg>