<svg id="Layer_1" enable-background="new 0 0 73 73" height="512" viewBox="0 0 73 73" width="512" xmlns="http://www.w3.org/2000/svg"><g id="_x32_66"><path d="m15.5116796 28.1648617c4.3717432 1.3879719 6.6915827 1.0707893 38.5334473.920166 4.1111221-.0194359 9.6847305-.0411682 12.9580688-2.7752075 1.4162598-1.1828613 2.0223999-2.77948 1.8243408-4.3098755.0964813-.7275238.0408096-.4275799.0561523-.6494141 0-1.1455078-.5-2.2421875-1.4462891-3.171875-1.6796875-1.6513672-4.5556641-2.5830088-7.6992188-2.5458994-15.7041016.2802734-28.633791.3339844-40.6884766.1621094-3.3203115-.0517578-6.4589834 1.0576181-8.1494131 2.8818369-1.7406492 1.8784485-1.1964169 3.5726986-1.2246094 3.8515625.2367642 2.7942219 3.1706889 4.7903366 5.8359978 5.6365967zm-3.5108032-8.468628c1.6290731-1.7605991 4.6032076-2.4392452 7.0273428-2.4013672 12.0712891.1708984 25.0156269.1191406 40.7373047-.1621094 2.6962891-.0585938 5.2431641.7626953 6.6201172 2.1152344 1.1583939 1.1360722.9686661 2.137228.9990234 2.2373047.0019531.9453125-.5566406 1.7011719-1.0253906 2.1679688-1.4033203 1.4003906-3.9580078 2.2666016-6.6777344 2.2666016-.0185547 0-.0380859 0-.0566406 0-12.1669922-.0507813-25.1347656.0917969-40.7919922.4580078-4.0507803.0966797-7.468749-1.6894531-7.6660147-4.0107422l-.0390625-.4580078c-.086914-.9560547.4267579-1.7314453.8730469-2.2128907z"/><path d="m9.5421972 41.2466469c.6035156 2.0441895 2.9918213 3.8051758 5.6079102 4.6357422 4.3717432 1.3879738 6.6915216 1.0707893 38.5333862.920166 4.1112328-.0194359 9.6847038-.0410957 12.9581299-2.7752075 1.4159546-1.1826172 2.0220947-2.7788696 1.8244629-4.30896.0227661-.1724243.0565796-.343689.0562744-.5182495-.0211029-.1000366.1891251-1.6970062-1.4472656-3.3046875-1.6796875-1.6494141-4.5449219-2.6035156-7.6982422-2.5449219-15.7421875.28125-28.6709003.3339844-40.6884766.1621094-3.3007803-.0546875-6.4589834 1.0576172-8.1494131 2.8818359-.9375 1.0107422-1.3759766 2.1757813-1.2675781 3.3681641.0464373.3514595.0134134.7756309.270812 1.4840088zm2.0973511-3.8336182c1.6254244-1.754261 4.5917139-2.438446 7.0273428-2.4003906 12.0351563.171875 24.9785175.1191406 40.7373047-.1621094 2.7041016-.0712891 5.2431641.7617188 6.6191406 2.1152344 1.1607666 1.138401.9686432 2.1362305.9990234 2.2363281.0019531.9453125-.5566406 1.7011719-1.0253906 2.1689453-1.6133804 1.6111374-4.3779411 2.265625-6.7333984 2.265625-12.1796875-.0507813-25.1425781.09375-40.7919922.4589844-4.0351553.1044922-7.468749-1.6894531-7.663085-3.9755859.0436144-.2528077-.430954-1.3458252.8310547-2.7070313z"/><path d="m67.4374008 53.43256c-1.6796875-1.6513672-4.5556641-2.5839844-7.6992188-2.5458984-15.7001953.2802734-28.6308613.3320313-40.6884766.1630859-3.3320303-.0273438-6.4589834 1.0556641-8.1494131 2.8808594-1.7396727 1.8793564-1.1963215 3.5727081-1.2246094 3.8515625.2367973 2.7955055 3.172205 4.7912521 5.8359985 5.6369629 4.3717432 1.3879738 6.6915827 1.0707893 38.5334473.9201698 4.1111221-.0194397 9.6847305-.0411682 12.9580688-2.7752113 1.4162598-1.1829224 2.0223389-2.779541 1.8242798-4.3099976.0235596-.1773071.0574951-.3532104.0571899-.5334473-.0212486-.1000175.1792061-1.6901436-1.4472664-3.2880859zm-1.0771484 5.4755859c-1.6225281 1.6180077-4.3952141 2.265625-6.7353516 2.265625-12.2138672-.0546875-25.1816406.0927734-40.7919922.4589844-4.0195303.1298828-7.468749-1.6904297-7.663085-3.9775391.0451536-.260952-.4307346-1.3438911.8310547-2.7050781 1.6304054-1.7608833 4.6030893-2.4376869 7.0273428-2.4003906 12.078125.1689453 25.0214863.1181641 40.7373047-.1630859 2.6875-.0537109 5.2431641.7626953 6.6201172 2.1152344 1.1583252 1.138443.9685974 2.1371956.9990234 2.2373047.0019532.9453124-.5566406 1.7011718-1.024414 2.1689452z"/><path d="m4.5340791 15.1767015 3.9931645 1.9560556c.3726711.1812057.8207865.0279541 1.0039063-.34375.1816406-.3720703.0283203-.82129-.34375-1.0039072l-3.9931645-1.9560547c-.3740234-.1816406-.8212891-.0273438-1.0039063.34375-.1816407.3720704-.0283203.8212892.34375 1.0039063z"/><path d="m10.1561499 14.356389c.1386719.2402344.390625.375.6503906.375.5712891 0 .9381933-.623394.6484375-1.125l-1.9833984-3.4375c-.2070313-.3574218-.6640625-.4824218-1.0244141-.274414-.3583984.2070313-.4814458.6660156-.2744341 1.0244141z"/><path d="m13.6913061 9.269475v3.2548828c0 .4140625.3359375.75.75.75s.75-.3359375.75-.75v-3.2548828c0-.4140625-.3359375-.75-.75-.75s-.75.3359375-.75.75z"/></g></svg>