<svg id="Layer_1" enable-background="new 0 0 100 100" height="512" viewBox="0 0 100 100" width="512" xmlns="http://www.w3.org/2000/svg"><g><path d="m41.47 21.58c.02 1-.37 1.41-1.4 1.32-2.81-.27-6.04-2.38-5.91-5.82.06-1.66-.2-3.28-1.97-4.21-.53-.28-.95-1.05-.47-1.64.35-.43 1.02-.8 1.57-.82 1.01-.03 1.78.62 2.29 1.48.83 1.39 1.28 2.89 1.28 4.53.01 2.34.19 2.54 2.47 2.99 1.55.3 2.12.88 2.14 2.17z"/><path d="m71.68 72.31c2.82-.04 5.23 1.72 5.97 3.99.18.54.38 1.08.64 1.58.44.84 1.21 1.02 2.11.95.81-.07 1.58.09 1.64 1.13.05.79-.61 1.51-1.49 1.72-1.24.28-2.27-.21-3.16-.98-1.13-.97-1.91-2.19-2.4-3.62-.67-1.97-1.41-2.34-3.27-1.41-.97.48-1.67.39-2.4-.29-.77-.72-.77-1.71.14-2.23.83-.45 1.78-.67 2.22-.84z"/><path d="m55.82 18.84c.57.45 1.06.69 1.31 1.08.35.56.68 1.22.74 1.86.08.94-.41 1.26-1.34.98-1.46-.43-2.59-1.33-3.32-2.66-.67-1.23-.56-2.49.4-3.52.73-.78 1.61-1.43 2.48-2.05 1.03-.72 1.61-1.56 1.33-2.87-.13-.61-.32-1.37.46-1.65.83-.3 1.27.42 1.64 1 1.13 1.79.72 4.31-.91 5.69-.83.71-1.71 1.33-2.79 2.14z"/><path d="m35.63 76.32c-.59-.85-1.26-1.51-1.55-2.31-.41-1.12.19-1.75 1.33-1.59 1.37.2 2.53.84 3.38 1.94.94 1.22.9 2.28-.2 3.41-.61.63-1.36 1.14-2.07 1.65-1.34.97-2.68 1.89-3.17 3.64-.12.43-.78.97-1.21.99-.34.01-.78-.66-1.04-1.11-.48-.84-.4-1.76.16-2.52.63-.86 1.33-1.68 2.11-2.41.73-.67 1.6-1.2 2.26-1.69z"/><path d="m74.74 15.74c1.4-.38 2.35-.13 2.98.71.67.89.79 2.17.09 3.02-.59.71-1.34 1.36-2.14 1.82-1.83 1.07-3.86 1.6-5.93 2.01-1.56.31-1.8.67-1.43 2.23.14.61.46 1.19-.1 1.73-1.3-.53-2.27-2.04-2.22-3.39.04-1.32.98-2.38 2.44-2.82 1.7-.51 3.4-1 5.06-1.62.74-.28 1.37-.85 2.1-1.32-.31-.88-.58-1.62-.85-2.37z"/><path d="m26.58 32.09c-2.55.03-5.06-2.19-5.37-4.74-.07-.57-.05-1.15-.19-1.7-.23-.94-.56-1.72-1.85-1.73-1.1-.01-1.67-.99-1.45-2 .29-1.28 1.24-1.92 2.38-1.46 2.36.96 3.47 2.86 3.71 5.31.24 2.49.21 2.52 2.58 3.21.85.24 1.3.76 1.48 1.54.24 1.05-.21 1.56-1.29 1.57z"/><path d="m12.96 43.85c-1-.5-1.5-1.16-1.26-2.19.22-.95 1.15-1.71 2.21-1.83 1.21-.14 2.29.13 3.06 1.15.77 1.01 1.55 2.02 2.25 3.08.65.98 1.39 1.64 2.66 1.45.3-.05.72-.04.92.14.39.35.86.81.92 1.28.05.35-.42 1.04-.77 1.12-.77.18-1.65.26-2.4.05-1.63-.46-2.96-1.44-3.81-2.96-.03-.06-.07-.11-.1-.16-1.4-2.12-1.4-2.12-3.68-1.13z"/><path d="m21.15 61.88c-.49-1.08-.97-1.88-1.19-2.75-.18-.68.34-1.03 1.04-.99 1.27.07 2.86 1.51 3.23 2.91.45 1.73.06 2.74-1.62 3.61-.95.49-2 .8-3.02 1.13-.84.27-1.72.45-2.57.7-.64.19-1.37.74-1.8-.19-.35-.76-.45-1.58.3-2.28.83-.77 1.78-1.17 2.89-1.34.97-.14 2.03-.11 2.74-.8z"/><path d="m55.7 81.64c-2.11-.82-2.5-1.48-1.89-3.42 1.66-.38 2.95.36 4.07 1.45 1.04 1.02 1.24 2.55.54 3.86-.33.61-.74 1.19-1.2 1.7-.77.85-1.21 1.76-.96 2.93.19.91-.35 1.38-1.08 1.89-1.49-1.07-2.09-2.62-1.72-4.15.37-1.47 1.42-2.76 2.24-4.26z"/><path d="m83.26 40.55c-.67-.23-1.94-.6-3.15-1.1-.95-.4-1.76-.7-2.47.4-.4.62-1.07.68-1.69.34-.7-.39-.57-1.07-.41-1.69.37-1.4 1.54-2.26 2.99-2.02.99.16 1.94.55 2.89.9 2.25.84 2.58.75 3.91-1.18.56-.81 1.19-1.03 1.91-.67.79.4 1.04 1.16.68 2.09-.75 1.89-2.16 2.93-4.66 2.93z"/><path d="m85.19 61.16c-.91-.39-1.89-.69-2.72-1.2-1.38-.85-2.66-1.48-4.12-.13-.64.59-1.38.24-1.89-.25-.61-.58-.37-1.26.09-1.88.99-1.32 2.4-1.87 4.03-1.4.72.21 1.4.59 2.05.97 1.06.63 2.1.87 3.23.23.17-.09.33-.2.51-.26.7-.24 1.22.04 1.69.55.46.51.35 1.01.06 1.57-.62 1.15-1.6 1.57-2.93 1.8z"/><path d="m73.62 42.16c1.3 7.45 1.4 13.99-1.1 20.31-1.39 3.52-3.12 6.9-6.01 9.48-3.23 2.88-7.21 3.71-11.34 3.69-2.78-.01-5.6-.35-8.33-.9-3.22-.66-6.1-2.26-8.75-4.21-2.5-1.84-4.91-3.82-6.57-6.46-2.8-4.46-4.42-9.26-3.66-14.65.16-1.1.05-2.29-.16-3.39-.59-3.16-.47-6.38.34-9.36.97-3.57 3.41-6.29 6.93-7.85 1.46-.64 2.8-1.56 4.3-2.07 1.61-.55 3.32-.87 5.01-1.09 4.34-.56 8.68-.22 12.97.52 4.81.83 9.01 2.77 11.93 6.99 2.1 3.04 4.01 6.12 4.44 8.99zm-3.94 15.76c-.14.18-.31.33-.41.53-1.99 4.18-4.91 7.55-8.73 10.15-.24.16-.46.34-.67.54-.16.15-.28.35-.42.53 3.3-1.29 5.77-3.56 7.73-6.34 1.14-1.62 2.33-3.27 2.61-5.34 1.42-3.05 1.65-6.22 1.05-9.48-.15 1.35-.04 2.72-.2 4.05-.21 1.81-.63 3.58-.96 5.36zm-36.34-4.41c.17.85.45 1.96.61 3.09.24 1.73 1.13 3.04 2.33 4.27 2.15 2.19 4.67 3.86 7.24 5.48 2.71 1.71 5.55 3.04 8.86 2.61 2.14-.28 4.29-.62 6.38-1.12.77-.19 1.53-.81 2.1-1.41 1.49-1.58 2.88-3.26 4.29-4.91 3.37-3.92 4.29-8.4 2.9-13.32-1.32-4.67-3.81-8.65-7.47-11.89-2.11-1.87-4.22-3.73-7.11-4.27-2.07-.39-4.15-.9-6.24-1.03-2.81-.17-5.56.6-7.77 2.27-4.5 3.42-6.79 8.11-6.72 13.81.02 2.04.37 4.08.6 6.42zm37.8-11.43c-1.25-8.01-8.12-14.19-16.44-13.59.92.43 1.63.77 2.35 1.09 1.72.77 3.49 1.44 5.16 2.31 2.51 1.3 4.74 2.94 6.11 5.55.84 1.6 1.87 3.1 2.82 4.64zm-38.97 16.31c.8 5.17 6.09 11.45 12.73 12.49-3.01-1.47-5.47-3.14-7.76-5.11-2.36-2.02-3.66-4.68-4.97-7.38zm-2.24-20.65c.7-1.22 1.26-2.28 1.91-3.29s1.39-1.96 2.08-2.94c-2.33 1.51-3.8 3.9-3.99 6.23zm35.51 1.47c.79 1.27 1.58 2.54 2.37 3.81.26-1.95-1.15-2.81-2.37-3.81zm-34.54 11.86c.06-.01.13-.03.19-.04-.09-.45-.18-.91-.27-1.36-.06.01-.13.03-.19.04.09.46.18.91.27 1.36zm13.47 17.5c-.03.06-.06.11-.09.17.29.15.58.3.86.45.04-.07.07-.14.11-.21-.29-.14-.59-.27-.88-.41z"/></g></svg>