<svg id="outline_copy_2" height="512" viewBox="0 0 512 512" width="512" xmlns="http://www.w3.org/2000/svg" data-name="outline copy 2"><path d="m248 16h16v96h-16z"/><path d="m248 400h16v64h-16z"/><path d="m248 480h16v16h-16z"/><path d="m216.568 77.929-15.455 4.142 2.144 7.999 7.746 28.908 15.455-4.142-7.746-28.907z"/><path d="m210.138 53.93-6.456-24.095-15.455 4.141 6.456 24.095 7.727-2.071-7.727 2.071 2.143 7.999 15.455-4.141z"/><path d="m288.071 394.724h16v21.644h-16z" transform="matrix(.966 -.259 .259 .966 -94.883 90.458)"/><path d="m301.602 431.153h16v49.79h-16z" transform="matrix(.966 -.259 .259 .966 -107.486 95.672)"/><path d="m163.503 84.653h15.999v49.988h-15.999z" transform="matrix(.866 -.5 .5 .866 -31.847 100.443)"/><path d="m146.929 51.082-13.858 8 5.15 8.919 6.928-4-6.927 4 4.619 8.001 13.855-8-4.619-8 .001-.001z"/><path d="m332.499 377.359h15.999v49.994h-15.999z" transform="matrix(.866 -.5 .5 .866 -155.56 224.156)"/><path d="m359.116 438.688h15.999v19.539h-15.999z" transform="matrix(.866 -.5 .5 .866 -175.044 243.639)"/><path d="m137.089 132.236h16v25.705h-16z" transform="matrix(.707 -.707 .707 .707 -60.098 145.08)"/><path d="m97.976 86.142h16v39.668h-16z" transform="matrix(.707 -.707 .707 .707 -43.897 105.97)"/><path d="m354.91 355.716h16v14.39h-16z" transform="matrix(.707 -.707 .707 .707 -150.323 362.898)"/><path d="m394.024 376.534h16v50.981h-16z" transform="matrix(.707 -.707 .707 .707 -166.524 402.024)"/><path d="m104.861 152.077h16v42.564h-16z" transform="matrix(.5 -.866 .866 .5 -93.703 184.419)"/><path d="m59.082 133.072-8 13.856 22.699 13.106 4-6.929-3.998 6.93 1.186.684 7.996-13.859-1.184-.683z"/><path d="m390.352 317.813h16v40.747h-16z" transform="matrix(.5 -.866 .866 .5 -93.704 514.072)"/><path d="m436.459 350.421h16v28.772h-16z" transform="matrix(.5 -.866 .866 .5 -93.702 567.318)"/><path d="m82.884 184.817h16v53.881h-16z" transform="matrix(.259 -.966 .966 .259 -137.18 244.738)"/><path d="m31.951 189.781h16v16.658h-16z" transform="matrix(.259 -.966 .966 .259 -161.749 185.425)"/><path d="m409.546 276.042h16v46.488h-16z" transform="matrix(.259 -.966 .966 .259 20.388 625.142)"/><path d="m464.048 305.56h16v16.66h-16z" transform="matrix(.259 -.966 .966 .259 46.691 688.627)"/><path d="m96 248h16v16h-16z"/><path d="m16 248.001h56v16h-56z"/><path d="m400 248h24.003v16h-24.003z"/><path d="m448.004 248h47.996v16h-47.996z"/><path d="m74.07 313.03 4.862-1.302 40.045-10.73-4.141-15.456-40.045 10.73-4.861 1.303z"/><path d="m31.621 305.89h16.662v16h-16.662z" transform="matrix(.966 -.259 .259 .966 -79.87 21.032)"/><path d="m394.725 207.929h21.644v16h-21.644z" transform="matrix(.966 -.259 .259 .966 -42.064 112.306)"/><path d="m431.153 194.397h49.79v16h-49.79z" transform="matrix(.966 -.259 .259 .966 -36.845 124.931)"/><path d="m93.27 330.188h40.752v16h-40.752z" transform="matrix(.866 -.5 .5 .866 -153.868 102.131)"/><path d="m53.155 356.807h28.773v16h-28.773z" transform="matrix(.866 -.5 .5 .866 -173.353 82.644)"/><path d="m377.393 163.627h49.492v16h-49.492z" transform="matrix(.866 -.5 .5 .866 -31.937 224.064)"/><path d="m431.186 138.895h27.58v16h-27.58z" transform="matrix(.866 -.5 .5 .866 -13.832 242.167)"/><path d="m132.235 358.911h25.706v16h-25.706z" transform="matrix(.707 -.707 .707 .707 -216.957 210.075)"/><path d="m84.485 394.024h50.981v16h-50.981z" transform="matrix(.707 -.707 .707 .707 -252.063 195.515)"/><path d="m352.402 133.088h37.02v16h-37.02z" transform="matrix(.707 -.707 .707 .707 8.88 303.614)"/><path d="m425.706 97.608-11.314-11.314-7.242 7.242-4.807 4.807 11.314 11.314 4.808-4.808z"/><path d="m190.929 384.708-13.858-8-20.376 35.292.001.001-4.37 7.568 13.856 8 4.37-7.569-6.928-4 6.929 4z"/><path d="m134 438.526h24v15.999h-24z" transform="matrix(.5 -.866 .866 .5 -313.7 349.689)"/><path d="m320 109.436h32v15.999h-32z" transform="matrix(.5 -.866 .866 .5 66.291 349.695)"/><path d="m343.492 63.541h38.01v16.001h-38.01z" transform="matrix(.5 -.866 .866 .5 119.294 349.704)"/><path d="m205.107 397.546h21.644v16h-21.644z" transform="matrix(.259 -.966 .966 .259 -231.688 509.144)"/><path d="m177.502 448.047h49.791v16h-49.791z" transform="matrix(.259 -.966 .966 .259 -290.492 533.531)"/><path d="m285.249 98.453h21.644v16h-21.644z" transform="matrix(.259 -.966 .966 .259 116.609 364.879)"/><path d="m284.708 47.952h49.79v16h-49.79z" transform="matrix(.259 -.966 .966 .259 175.427 340.524)"/><path d="m215.029 176a15.926 15.926 0 0 1 -10.866-4.289 31.762 31.762 0 0 0 -4.452-7.107 15.955 15.955 0 0 1 -.682-4.6h-16a31.853 31.853 0 0 0 7.326 20.354 15.981 15.981 0 0 1 -17.255 20.473 31.882 31.882 0 0 0 -8.265-5.706l-.724 1.513c-.129-.121-.266-.229-.392-.355l-11.319 11.317a31.819 31.819 0 0 0 11.906 7.517 15.984 15.984 0 0 1 -20.188 23.313l-6.9 14.434a31.79 31.79 0 0 0 13.756 3.129h.055v.007a16 16 0 0 1 0 32v16a31.906 31.906 0 0 0 8.748-1.225l4.513 5.171a15.966 15.966 0 0 1 18.444-1.834 88.622 88.622 0 0 0 7.377 9.234 15.973 15.973 0 0 1 -4.853 16.774l-11.671 10.438 10.666 11.925 11.6-10.373q.577-.505 1.127-1.033l3.7 1.833a16 16 0 1 1 28.685 14.19l14.34 7.1a32 32 0 0 0 2.3-6.2h9.019a16.077 16.077 0 0 1 15.688-16 15.547 15.547 0 0 1 11.258 4.575 16.877 16.877 0 0 1 5.054 11.963 15.417 15.417 0 0 1 -.8 4.919l15.172 5.082a31.434 31.434 0 0 0 1.625-10 32.231 32.231 0 0 0 -.387-4.953l8.274-8.274a16 16 0 0 1 22.315-22.931l6.7 8.552 12.593-9.87-7.327-9.35-.343-.342a31.8 31.8 0 0 0 -10.657-7.047 7.994 7.994 0 0 1 6.488-12.669 8.05 8.05 0 0 1 1.96.25 39.817 39.817 0 0 0 25.363 9.087v-16a23.846 23.846 0 0 1 -10.427-2.387 24.029 24.029 0 0 0 -6.453-4.572 23.99 23.99 0 0 1 10.874-40.285l-3.988-15.5a40.07 40.07 0 0 0 -6.977 2.512v-2.76a16 16 0 0 1 0-32v-16a31.816 31.816 0 0 0 -11.508 2.149l-1.178-1.178a24 24 0 1 1 -33.943-33.943l-11.314-11.313a39.719 39.719 0 0 0 -10.915 20.285h-3.142a16 16 0 1 1 -32 0h-16a31.94 31.94 0 0 0 1.013 8h-1.013a16.018 16.018 0 0 1 -16 16zm40 8a72 72 0 1 1 -51.138 122.625 32.323 32.323 0 0 0 -9.585-12.012 71.942 71.942 0 0 1 60.723-110.613z"/></svg>