<svg id="Layer_1" enable-background="new 0 0 66 66" height="512" viewBox="0 0 66 66" width="512" xmlns="http://www.w3.org/2000/svg"><g><g id="XMLID_1_"><path d="m26.38 9.93v1.87h1.29v-2.11h-1.52c.13.01.23.11.23.24zm-2.21-.24v1.87c0 .13-.09.22-.21.24h1.92v-1.87c0-.13.1-.23.22-.24zm-1.55-1.88v1.38h1.05v-1.38zm0 3.99h1.27c-.12-.02-.21-.11-.21-.24v-1.87h-1.06zm0 1.71h3.26v-1.21h-3.26zm-2.86-4.07c0-.14.11-.25.25-.25h2.11v-1.38h-3.5c-.14 0-.25-.11-.25-.25s.11-.25.25-.25h3.5v-.24c0-.14.11-.25.25-.25s.25.11.25.25v.24h1.05v-.89c0-.14.12-.25.25-.25.14 0 .25.11.25.25v.89h2.2c.14 0 .25.11.25.25s-.11.25-.25.25h-2.2v1.38h3.5v-1.22c0-.14.11-.25.25-.25s.25.11.25.25v1.22h.65c.14 0 .25.11.25.25s-.11.25-.25.25h-.65v2.11h1.04c.14 0 .25.11.25.25s-.11.25-.25.25h-1.04v.19c0 .13-.11.25-.25.25s-.25-.12-.25-.25v-.19h-1.29v1.21h.57c.14 0 .25.12.25.25 0 .14-.11.25-.25.25h-.57v.33c0 .14-.11.25-.25.25s-.25-.11-.25-.25v-.33h-3.29c-.04.09-.11.17-.22.17-.1 0-.17-.08-.21-.17h-1.91c-.14 0-.25-.11-.25-.25 0-.13.11-.25.25-.25h1.87v-1.21h-1.22c-.13 0-.25-.11-.25-.25s.12-.25.25-.25h1.22v-2.11h-2.11c-.14 0-.25-.11-.25-.25z"/><path d="m17.51 37.38c-.1-.09-.1-.25 0-.35s.26-.1.35 0l1.02 1.01 1.09-1.09-.76-.76c-.1-.09-.1-.25 0-.35s.26-.1.36 0l.76.76 1.22-1.22-.97-.98c-.1-.09-.1-.25 0-.35.09-.1.25-.1.35 0l.97.97.75-.75-.88-.89c-.1-.1-.1-.25 0-.35s.25-.1.35 0l.89.89.71-.71-1.02-1.02c-.09-.1-.09-.25 0-.35.1-.1.26-.1.36 0l1.01 1.01 1.57-1.56c.09-.1.25-.1.35 0s.1.25 0 .35l-1.56 1.57.37.37c.1.1.1.26 0 .36-.09.09-.25.09-.35 0l-.38-.38-.71.71.35.35c.1.1.1.25 0 .35s-.26.1-.35 0l-.35-.35-.75.76.33.33c.1.1.1.26 0 .35-.1.1-.26.1-.35 0l-.34-.33-1.22 1.22.55.55c.1.1.1.26 0 .35-.1.1-.26.1-.36 0l-.54-.54-1.1 1.09.85.85c.1.1.1.26 0 .35-.09.1-.25.1-.35 0l-.85-.85-2.12 2.12c-.1.1-.26.1-.36 0-.09-.09-.09-.25 0-.35l2.12-2.12z"/><path d="m4.25 18.14c-.14 0-.25-.12-.25-.25 0-.14.11-.25.25-.25h1.01v-2.28c0-.14.11-.25.25-.25s.25.11.25.25v2.28h1.02c.14 0 .25.11.25.25s-.11.25-.25.25h-1.02v2.51h1.14c.14 0 .25.11.25.25 0 .13-.11.25-.25.25h-1.14v2.5h.84c.13 0 .25.11.25.25s-.12.25-.25.25h-.84v2.15h.77c.14 0 .25.11.25.25s-.11.25-.25.25h-.77v1.97h.96c.14 0 .25.11.25.25s-.11.25-.25.25h-.96v.95c0 .14-.11.25-.25.25s-.25-.11-.25-.25v-.95h-.35c-.14 0-.25-.11-.25-.25s.11-.25.25-.25h.35v-1.97h-1.07c-.14 0-.25-.11-.25-.25s.11-.25.25-.25h1.07v-2.15h-.71c-.14 0-.25-.11-.25-.25s.11-.25.25-.25h.71v-2.51h-.83c-.14 0-.25-.11-.25-.25 0-.13.11-.25.25-.25h.83v-2.5z"/><path d="m37.62 60.7-1.18 1.19.62.62c.03.02.03.06.04.1.32-.28.62-.58.87-.92 0-.01 0-.01 0-.01.95-1.28 1.34-2.82 1.08-4.23-.01-.08-.04-.17-.06-.26l-.59.6.53.53c.1.1.1.26 0 .35-.05.05-.11.08-.18.08-.06 0-.12-.03-.17-.08l-.54-.53-.97.97c-.05.05-.11.08-.18.08-.04 0-.08-.03-.13-.06l.86.86.61-.61c.1-.1.26-.1.36 0 .09.1.09.26 0 .36l-.61.61.27.27c.1.09.1.25 0 .35-.05.05-.11.07-.18.07-.06 0-.13-.02-.17-.07zm-2.72-.36 1.18 1.19 1.19-1.19-1.19-1.18zm.59-15.92-.34.34h.68zm-.12-21.44 1.12 1.12 2.19-2.18-1.12-1.13zm-1.8 38.69 1.18 1.19.98-.98-1.19-1.18zm-.63-36.26 1.13 1.12 2.07-2.08-1.12-1.12zm-.78 37.67.63.64c.06.06.07.14.05.22 1.52.2 2.76-.19 3.92-1.06-.11-.07-.57-.54-.68-.64l-1.25 1.25c-.05.05-.12.08-.18.08s-.13-.03-.18-.08c-.07-.07-.07-.16-.04-.25l-1.22-1.21zm3.36-17.32h-3.91c-.17 2.32-.16 4.83-.12 7.51 1.27-.47 2.87-.66 4.36-.31h.01c-.07-1.56-.27-5.7-.34-7.2zm-3.34 18.06-.38-.38-.2.2c.2.07.39.13.58.18zm-.76-39.94 1.17 1.18 2.08-2.08-1.03-1.03c-.07-.07-.07-.17-.03-.26zm.88 37.24-1.06 1.05.56.56 1.06-1.05zm-2.88-35.25 1.18 1.18 1.64-1.64-1.18-1.18zm1.47 36.66-.51.51c.25.16.51.3.79.43 0-.06.02-.12.07-.17l.21-.21zm-1.15-39.65-1.65 1.66.98.98 1.64-1.64-.94-.94c-.02-.02-.02-.04-.03-.06zm-1.18 34.06c-1.13 2.23-.46 4.4 1.39 5.82l.58-.59-.39-.39c-.1-.1-.1-.26 0-.36.09-.1.25-.1.35 0l.4.4 1.1-1.11c0-.06.03-.13.08-.18.05-.04.11-.07.18-.07l1.19-1.19c.1-.1.26-.1.36 0 .09.09.09.25 0 .35l-1.15 1.14.56.56.98-.97-.24-.25c-.1-.09-.1-.25 0-.35s.25-.1.35 0l.24.24 1.3-1.29c.02-.03.06-.03.09-.04 0 0 0 0 0-.01.1-.09.26-.09.36 0l.4.41c-.06-.09-.06-.22.03-.3l.97-.97-.3-.3c-.09-.09-.09-.25 0-.35.1-.1.26-.1.36 0l.29.29.7-.7c.03-.02.06-.02.09-.04-.03-.08-.05-.17-.09-.25-1.6-3.87-8.01-3.31-10.09.32-.04.08-.06.12-.09.18zm-1.41.97c.01-.05.03-.1.04-.14l-.09.08zm-.4-.41.19-.19c-.13 0-.27.01-.4.01.02.01.04.01.05.03zm.18 4.16c.25-.01.5-.01.75-.01-.1-.18-.19-.36-.26-.55-.02-.04-.04-.09-.05-.14-.04-.09-.07-.18-.1-.27l-.65.65zm-.86-35.1c1.62 1.36 3.25 2.21 5.37 2.04l-.85-.85c-.12.1-.25.08-.33-.01-.09-.09-.09-.23-.01-.33l-1.18-1.18-1.19 1.19c-.1.09-.25.09-.35 0-.1-.1-.1-.26 0-.36l1.19-1.19-.99-.98zm-.66 33.58.85.85.65-.64c-.01-.01-.01-.01-.01-.01l-.85-.85zm-.36.35-.67.68.47.47c.01.01.01.02.01.03h.72l.33-.33zm-1.03 1.03-.14.14c.09.01.19.01.29.01zm-.98-.08c.06.05.07.13.06.21h.13c.01-.02.01-.05.03-.07l.41-.41-.53-.53-.45.45zm-.7 0-.18.18c.12.01.25.01.37.01zm30.38-20.14-1.34 1.34.88.88 1.35-1.34zm-2.27-26.07-1.78 1.77.14.14c.01.02.01.04.02.06.66-.56 1.33-1.13 1.98-1.7-.06-.01-.11-.02-.16-.07zm-5.55 2.1.49.49.95-.95c.1-.1.26-.1.36 0 .09.1.09.26 0 .36l-.95.95.87.87c.63-.51 1.25-1.03 1.86-1.55-.01 0-.02 0-.03-.01l-.13-.14-.45.46c-.1.09-.26.09-.36 0-.1-.1-.1-.26 0-.36l.45-.45-1.21-1.22c-.08-.07-.08-.17-.04-.26zm12.15-9.53.19.19.99-.98-.2-.19zm-2.74 34.38 1.21 1.21 1.21-1.21-1.21-1.21zm.86-1.56-.89-.88-1.2 1.2.88.89zm-11 16.32.46-.46c-.18.01-.35.02-.52.02-.01.01 0 .03-.01.03l-.17.17zm-2.3-.33.85.85c-.05-.09-.05-.21.03-.29l.48-.47-.15-.15c-.4.02-.81.04-1.21.06zm-.96.04c-.17.01-.34.02-.51.03l.25.24zm-.68 4.8 11.91-.18c4.42-.12 3.26-2.71 1.77-3.72-2.35-1.57-5.5-1.24-8.39-1.12l.49.49c.1.1.1.25 0 .35-.05.05-.12.08-.18.08s-.13-.03-.18-.08l-.56-.56-.57.57.02.02c.1.1.1.26 0 .36-.05.05-.11.07-.18.07-.06 0-.12-.02-.17-.07l-.61-.61-.48.48c-.05.05-.11.07-.18.07-.04 0-.07-.03-.11-.05l.05.05c.1.1.1.26 0 .36-.05.05-.11.07-.17.07-.07 0-.13-.02-.18-.07l-1.1-1.1-.41.41.54.54.1-.1c.1-.1.26-.1.35 0 .1.1.1.25 0 .35l-.11.12c.06.1.06.22-.02.31-.05.04-.11.07-.18.07-.04 0-.09-.03-.13-.06l-.68.69.46.46.24-.24c.1-.1.26-.1.35 0 .1.1.1.25 0 .35l-1.38 1.38c-.01.02-.01.04-.02.06-.02.01-.04.01-.05.02zm-.72.01.46-.45-.31-.32c-.1.23-.2.45-.31.67-.02.03-.03.07-.05.11zm-.16-17.03.85-.85-.59-.59-.97.97.34.34c.1.09.1.25 0 .35s-.26.1-.35 0l-.34-.34-.45.45h1.5c-.08-.1-.08-.24.01-.33zm-1.49-18.73c2.87-2 5.66-4.12 8.38-6.33l-.84-.84-1.84 1.84c.01.08 0 .16-.06.22-.05.05-.11.07-.18.07-.01 0-.02-.01-.04-.01l-1.91 1.91c-.1.09-.26.09-.35 0-.1-.1-.1-.26 0-.36l1.87-1.87-.96-.96-2.54 2.54.81.82c.1.09.1.25 0 .35-.09.1-.25.1-.35 0l-.81-.81-2.19 2.18.21.22c.1.09.1.25 0 .35-.09.1-.25.1-.35 0l-.21-.21-2.08 2.07.24.24c.23.24-.13.59-.36.35l-.23-.23-.4.4c-.1.09-.26.09-.35 0-.1-.1-.1-.26 0-.36l.39-.4-1.12-1.12-1.64 1.64 1.08 1.08c.02.02.01.04.02.05 2.08-.35 4.06-1.61 5.81-2.83zm2.21 33.94c-.04-.05-.05-.1-.06-.15 0 0 0 .01-.01.02-.04.22-.09.44-.16.66l.49.48.65-.65-.46-.46-.1.1c-.04.04-.11.07-.17.07-.07 0-.13-.03-.18-.07zm.48-15.7-.82.82c3.51-.01 8.3-.02 11.34 0 .01-.02.01-.05.02-.06l.82-.82-.88-.88-.39.38c-.1.1-.26.1-.35 0-.1-.1-.1-.26 0-.35l.38-.39-1.39-1.4-1.18 1.18 1.69 1.69c.09.1.09.26 0 .36-.1.1-.26.1-.36 0l-1.69-1.68-1.08 1.07c.06.1.07.23-.02.32-.1.09-.24.1-.38-.03-.07 0-.13-.02-.18-.07s-.07-.11-.07-.18l-1.04-1.04-.99.99.2.2c.1.1.1.26 0 .36s-.26.1-.35 0l-.21-.21c-.12.09-.25.07-.34-.01-.09-.09-.09-.24-.01-.33l-1.32-1.33-1.04 1.05.57.58c.1.1.1.26 0 .35-.09.1-.25.1-.35 0zm-.51 15.42c.01-.03.01-.06.03-.08l.09-.09-.09-.09c-.01.07-.02.15-.03.23zm0-2.08c.05.31.08.63.08.95v.18.03l.4.39.67-.66-.58-.58c-.02 0-.03.01-.04.01-.07 0-.13-.02-.18-.07-.06-.06-.07-.14-.06-.22l-.37-.37c.02.11.06.22.08.34zm23.73-35.26c0-.09 0-.19.01-.28l-.15.14zm.03-2.28c0-.03 0-.05 0-.07l-.04.03zm-.14 7.28.04.05c.01.01.01.01.01.02 0-.06 0-.11 0-.16-.01.02-.01.05-.02.07zm.15-8.4c0-.33.01-.65.01-.97l-.49.49zm-.21 13.73.05.05c0-.03 0-.06 0-.09zm-.2-2.32-1.06 1.06.91.91.26-.26c.04-.04.09-.05.15-.06 0-.47.01-.94.01-1.41l-.26-.26c-.01.01-.01.01-.01.02zm-2.47-25.78.5.51c.05.04.07.1.07.16.3-.32.6-.63.88-.96-.28-.1-.58-.19-.91-.25zm1.54 31.61-1.42 1.42.88.89 1.55-1.55c.03-.03.07-.04.11-.05.01-.39.02-.78.02-1.18.01-.82.02-1.63.03-2.44-.08.01-.13.02-.21-.06l-.18-.18-1.61 1.61.83.83.07-.07c.1-.1.25-.1.35 0s.1.26 0 .36l-.07.07.26.25c.1.1.1.26 0 .36s-.25.1-.35 0zm-2.21 6.24.88.88c.01.01.01.03.02.04.3-.24.58-.51.83-.81-.1-.09-.86-.79-.96-.87zm-.5-4.24.58-.58-.46-.45-1.1 1.1 2.63 2.4c.08-.01.15.01.21.06.05.05.07.12.07.19l.88.8c.66-1.19.9-2.61.99-4.14l-1.28 1.28.73.73c.1.1.1.26 0 .35-.1.1-.25.1-.35 0l-.73-.72-.52.52c-.1.1-.26.1-.36 0s-.1-.26 0-.36l.52-.52-.88-.88-.58.57c-.1.1-.25.1-.35 0-.1-.09-.1-.25 0-.35zm-6.83 6.92c2.9.05 5.8-.15 7.83-1.48l-.85-.84-1.1 1.1.15.14c.1.1.1.26 0 .36-.1.09-.26.09-.36 0l-.14-.15-.07.07c-.1.09-.25.09-.35 0-.1-.1-.1-.26 0-.36l.06-.06-1.02-1.02-1.2 1.2.2.2c.09.1.09.26 0 .36-.1.1-.26.1-.36 0l-.2-.2-.3.31c-.1.09-.26.09-.36 0-.1-.1-.1-.26 0-.36l.31-.31-1.21-1.2-1.34 1.34.36.36c.1.1.1.26 0 .35-.1.1-.26.1-.35 0l-.37-.36-.53.54c.45 0 .85.01 1.2.01zm6.6-8.29-.83-.84-.63.63c-.1.1-.26.1-.35 0-.1-.09-.1-.25 0-.35l.63-.63-.04-.04c-.1-.1-.1-.25 0-.35s.26-.1.35 0l.04.04 1.43-1.43-.04-.04c-.1-.1-.1-.25 0-.35.09-.1.25-.1.35 0l.85.84 1.61-1.61-.92-.92c-.12.1-.25.08-.33 0-.1-.1-.1-.26 0-.36l.01-.01c-.03-.09-.03-.19.04-.26s.17-.07.26-.04l1.09-1.09s.01 0 .01-.01l-.55-.55c-.1-.1-.1-.26 0-.35.1-.1.26-.1.35 0l.82.82c.01-.72.02-1.44.03-2.16-.05.05-.12.08-.18.08s-.13-.03-.18-.08l-.04-.05-.93.93c-.1.1-.26.1-.36 0-.09-.1-.09-.25 0-.35l.93-.93-.6-.6c-.24-.24.12-.59.35-.36l.61.61.02-.03c.1-.1.26-.1.36 0 .02.02.02.04.03.07 0-.53.01-1.05.02-1.57-.02-.01-.04-.01-.06-.03l-.29-.29-.9.9c-.1.09-.26.09-.36 0-.1-.1-.1-.26 0-.36l.9-.9-.47-.47c-.1-.1-.1-.25 0-.35s.26-.1.36 0l.47.47.31-.31c.01-.02.03-.01.05-.03.01-.35.01-.7.02-1.05l-.49-.49-.74.74c-.1.1-.26.1-.35 0-.1-.1-.1-.26 0-.36l.74-.74c-.08-.1-.08-.24.01-.33.09-.1.23-.09.33-.01l.34-.34c.05-.05.11-.07.17-.08 0-.23.01-.47.01-.71-.01-.01-.03-.01-.04-.02l-.34-.33-.23.22c-.09.1-.25.1-.35 0-.1-.09-.1-.25 0-.35l.24-.25c-.05-.09-.05-.21.03-.29s.2-.08.29-.02l.25-.25c-.02-.01-.04 0-.05-.02l-.61-.61-.28.28c-.1.1-.26.1-.35 0-.1-.09-.1-.25 0-.35l.32-.32c-.02-.08-.01-.16.05-.22s.14-.07.22-.05l.82-.82c.02-.02.05-.02.07-.03.04-3.15.07-6.3.11-9.45 0-1.19-.06-2.32-.7-3.02-2.9 3.48-11.02 11.71-20.46 18.84l15.63 14.25zm.95-2.62-1.43 1.42.94.94c.03.01.07.01.1.04s.03.06.04.1l.56.56 1.43-1.42-.84-.84-.3.31c-.1.1-.26.1-.36 0s-.1-.25 0-.35l.31-.31zm-2.02 9.33 1.1-1.1-1.02-1.01-1.1 1.09zm2.2-2.2-2.59-2.36-.63.63 1.1 1.1.09-.09c.1-.1.26-.1.36 0 .09.1.09.26 0 .35l-.1.1 1.02 1.02zm-39.7 20.29c.08.08.08.18.04.28.18.01.37.02.55.03.01-.05.02-.09.05-.13l.39-.38-.45-.45-.62.62zm-1.39-.77-.76.76c.01.03-.01.07-.03.1.42.05.84.09 1.25.12.01-.04.02-.08.04-.1l.15-.14-.58-.58c-.04-.05-.06-.1-.07-.16zm-7.32-15.96c2.31.26 17.55.2 19.94.2-.02-.08-.01-.16.05-.23l.41-.41-.52-.52c-.1-.1-.1-.26 0-.36.1-.09.26-.09.35 0l.53.53.98-.99c.1-.1.26-.1.36 0s.1.26 0 .35l-.99.99.2.2c.1.1.1.26 0 .35-.1.1-.25.1-.35 0l-.2-.2-.29.29h1.75c.01-.02.01-.04.03-.06l.63-.63-.31-.31c-.1-.1-.1-.26 0-.36.1-.09.26-.09.36 0l.3.31 1.38-1.37c.1-.1.26-.1.36 0 .09.09.09.25 0 .35l-1.38 1.38.4.39c.08.09.08.21.02.3h.1.77l.8-.8-.68-.69c-.1-.09-.1-.25 0-.35.09-.1.25-.1.35 0l.69.68 1.43-1.43c.1-.1.26-.1.35 0 .1.1.1.26 0 .35l-.11.12.59.59 2.41-2.41c.1-.1.26-.1.35 0 .1.09.1.25 0 .35l-1.01 1.01 1.32 1.32.99-.99-.63-.64c-.1-.09-.1-.25 0-.35s.25-.1.35 0l.63.63 1.43-1.42c.09-.1.25-.1.35 0s.1.25 0 .35l-1.42 1.43.99.99 1.07-1.07-.66-.66c-.09-.1-.09-.26 0-.36.1-.09.26-.09.36 0l.66.66 1.21-1.21c-.04-.09-.03-.18.04-.25s.16-.08.25-.04l2.46-2.46c.1-.1.25-.1.35 0s.1.26 0 .35l-2.42 2.43 1.39 1.4 1.34-1.35-.52-.52c-.1-.1-.1-.26 0-.35.1-.1.26-.1.36 0l.52.52 1.21-1.21-.63-.63c-.1-.1-.1-.26 0-.35.09-.1.25-.1.35 0l.63.63.73-.73c.1-.1.26-.1.35 0 .1.1.1.25 0 .35l-.73.73.89.89.27-.27c.1-.1.25-.1.35 0 .1.09.1.25 0 .35l-.27.27 1.21 1.21 1.1-1.1-1.15-1.15c-.07 0-.13-.03-.18-.08s-.07-.11-.07-.18l-1.6-1.59c-.1-.1-.1-.26 0-.36.1-.09.26-.09.36 0l1.54 1.55.62-.62-15.73-14.33c-1.17.87-2.35 1.72-3.54 2.55-6.41 4.47-9.93 4.08-14.75-.82-5.19 6.3-11.32 11.7-18.22 16.05 1.71 1.48 4.08 2.48 6.79 2.81zm.92 13.58c-.29.36-.07 1.24.32 1.68.87 1 2.9 1.26 4.59 1.48l.07-.07-.37-.37c-.1-.1-.1-.26 0-.36.1-.09.25-.09.35 0l.37.38 1.02-1.02c.1-.1.25-.1.35 0s.1.26 0 .35l-.04.05c.06 0 .12.02.16.07l.58.57.66-.66c-.01-.07.01-.14.06-.19.06-.06.13-.08.2-.07l.14-.14c.1-.1.26-.1.35 0 .1.1.1.25 0 .35l-.09.1.45.45.47-.48c-.03-.09-.03-.19.04-.26.07-.08.18-.08.27-.04l.67-.67c.1-.1.26-.1.36 0 .09.09.09.25 0 .35l-.65.65.52.52 1.78-1.77c.05-.06.12-.07.19-.07.09-.04.2-.04.27.03l.81.81c-.01-.04-.02-.07-.02-.11 0-.05-.01-.09-.02-.14-.02-.22-.02-.45-.01-.67 0-.06.01-.12.01-.18.01-.07.01-.13.02-.2l-.3-.3-.41.41c-.05.05-.12.07-.18.07s-.13-.02-.18-.07c-.09-.1-.09-.26 0-.36l.41-.41-.15-.15c-.1-.1-.1-.26 0-.35.01-.01.02-.01.02-.01-1.82.08-1.1.05-11.23.53-.49.02-1.56-.1-1.86.27zm-8.18-53.26 18.76 19.47c.65.67 1.29 1.3 1.93 1.88l1.69-1.7-1.6-1.59c-.09-.1-.09-.26 0-.36.1-.09.26-.09.36 0l1.6 1.6 1.77-1.77c.1-.1.25-.1.35 0 .03.03.04.07.05.12.08-.02.16-.01.22.05l.94.95 3.84-3.85c.1-.1.26-.1.36 0 .09.1.09.26 0 .36l-1.53 1.52c.09-.03.19-.03.26.04l1.03 1.02 2.2-2.2c-.06-.09-.06-.21.02-.29.08-.09.2-.08.3-.03l.85-.85c.1-.1.26-.1.36 0 .09.1.09.26 0 .35l-.84.84 1.12 1.12 2.54-2.54-.45-.45c-.1-.1-.1-.26 0-.35.1-.1.26-.1.35 0l.45.45.28-.28c.09-.09.25-.09.35 0 .1.1.1.26 0 .36l-.27.27.96.96 1.8-1.81-.86-.86c-.1-.09-.1-.25 0-.35s.26-.1.35 0l.02.01 3.06-3.06c.1-.1.26-.1.36 0 .09.1.09.26 0 .35l-1.14 1.13c.09-.03.2-.03.27.04l1.22 1.22 1.77-1.78-.72-.72c-.1-.1-.1-.26 0-.36.1-.09.25-.09.35 0l.73.73.29-.3c.1-.1.26-.1.36 0s.1.25 0 .35l-.3.3.21.21c.05.05.07.11.07.17.49-.44.98-.89 1.47-1.34-.02-.01-.05-.01-.06-.03l-1.17-1.17-1 1c-.1.1-.25.1-.35 0s-.1-.26 0-.35l2.97-2.97c.09-.1.25-.1.35 0 .01.01.01.03.02.04.02.01.05.01.07.03l.75.75.32-.32c.1-.1.26-.1.36 0s.1.26 0 .36l-.32.32.04.04c.1.1.1.26 0 .36-.1.09-.26.09-.36 0l-.04-.05-1.19 1.19c-.09.1-.25.1-.35 0s-.1-.26 0-.35l1.19-1.19-.66-.66-1.45 1.45 1.17 1.17c.02.02.02.05.04.08 1.04-.96 2.06-1.93 3.07-2.93l-.89-.89-.42.43c-.1.09-.26.09-.36 0-.1-.1-.1-.26 0-.36l.43-.43c-.08-.09-.08-.24.01-.33s.24-.09.33-.01l1.29-1.29-.2-.2c-.1-.1-.1-.26 0-.36s.26-.1.35 0l.21.21 1.09-1.1c.02-.03.02-.07.04-.09.03-.03.06-.03.1-.04l.3-.3c.1-.1.25-.1.35 0 .1.09.1.25 0 .35l-.19.19.19.19.07-.07c.1-.1.26-.1.36 0 .09.1.09.26 0 .36l-.07.07.1.1c.09.1.09.25 0 .35-.1.1-.26.1-.36 0l-.1-.1-.98.99.13.13c.1.1.1.25 0 .35s-.26.1-.35 0l-.14-.13-.53.53c-.1.1-.26.1-.35 0-.1-.09-.1-.25 0-.35l.53-.53-.19-.2-1.29 1.29.9.9c1.7-1.68 3.35-3.4 4.96-5.16-.01 0-.01 0-.01 0-.07 0-.13-.02-.18-.07l-.51-.5-.69.69c-.04.04-.09.05-.14.06l.42.42c.1.09.1.25 0 .35s-.26.1-.36 0l-.77-.77c-.1-.1-.1-.26 0-.36.1-.09.26-.09.36 0l.08.09c0-.05.02-.1.05-.14l.73-.73c-.03-.08-.03-.18.04-.25s.17-.08.26-.04l.3-.31c-.08-.01-.16-.02-.24-.03-16.12-1.77-32.48-2.07-48.61-.87-2.49.19-5.26.54-7.01 2.16zm-.69.72c-1.25 1.65-1.45 3.98-1.54 6.42-.1 2.86-.21 5.7-.32 8.55-.11 2.92-.22 5.85-.32 8.78-.15 4.17-.21 8.63 2.6 11.69 6.93-4.34 13.07-9.74 18.26-16.06zm-.49-.98c.06-.12.12-.19.25-.24 1.9-2.04 5.05-2.45 7.87-2.66 16.19-1.2 32.61-.9 48.79.87 3.17.38 4.22 1.35 4.22 4.94v.01c-.12 9.29-.22 18.58-.33 27.86-.02 2.72-.17 5.34-1.74 7.34-2.03 2.59-5.58 3.05-9.21 3.05-2.09 0 .83-.07-17.14-.03.1 2.07.29 6.23.36 7.56 1.16.49 2.06 1.33 2.6 2.4 8.92-.44 12.14-.9 14.99 1 2.44 1.64 2.98 5.41-2.31 5.55l-13.56.21c-.42.53-.91 1.01-1.48 1.39-.13.27-1.84 1.13-3.55 1.13-1.85 0-3.85-.81-5.18-2.36-.07 0-.91.01-.97.01-.15.05-.03.04-.14 0-3.14.05-12.48.21-14.55-2.17-.58-.67-1.04-2.11-.34-2.98.64-.77 1.61-.59 2.59-.63 10.46-.5 10.89-.52 12.81-.6 0-.01 0-.01.01-.02.6-1.05 1.54-1.91 2.69-2.52-.01-2.15-.09-5.07.13-7.97-11 .03-17.05-.05-18.49-.21-11.71-1.42-11.19-11.2-11.01-16.24.11-2.93.22-5.86.33-8.78.1-2.85.21-5.69.31-8.54.1-2.57.3-5.48 2.05-7.37z"/></g></g></svg>